<svg viewBox="0 471 1500 561" xmlns:xlink="http://www.w3.org/1999/xlink" version="1.1" xmlns="http://www.w3.org/2000/svg" style="max-height: 500px" width="1500" height="561"><rect fill="#ffffff" height="1500" width="1500"/><g transform="matrix(0.6666666666666666,0,0,0.6666666666666666,249.39393939393938,567.9102886006386)"><svg xmlns:xlink="http://www.w3.org/1999/xlink" xmlns="http://www.w3.org/2000/svg" width="1500" height="545" preserveAspectRatio="xMidYMid meet" data-background-color="#ffffff" viewBox="0 0 396 144"><g transform="matrix(1,0,0,1,0.2400000000000091,0.1676654353432525)" id="tight-bounds"><svg width="395.52" height="143.6646691293135" viewBox="0 0 395.52 143.6646691293135"><g><svg width="395.52" height="143.6646691293135" viewBox="0 0 672.9385317428321 244.43136"><g transform="matrix(1,0,0,1,277.4185317428321,52.35010335766424)"><svg width="395.52" height="139.73115328467154" viewBox="0 0 395.52 139.73115328467154"><g id="textblocktransform"><svg id="textblock" width="395.52" height="139.73115328467154" viewBox="0 0 395.52 139.73115328467154"><g><svg width="395.52" height="139.73115328467154" viewBox="0 0 395.52 139.73115328467154"><g transform="matrix(1,0,0,1,0,0)"><svg data-palette-color="#001f3f" height="139.73115328467154" viewBox="4 -35.55 102.75 36.3" width="395.52"><path id="text-0" data-fill-palette-color="primary" class="wordmark-text-0" fill="#000000" transform="matrix(1,0,0,1,0,0)" opacity="1" d="M17.9 0.75Q14.35 0.75 11.3-0.88 8.25-2.5 6.3-5.35 4.35-8.2 4-11.65L4-11.65 5.85-11.65Q6.2-8.7 7.9-6.28 9.6-3.85 12.23-2.48 14.85-1.1 17.9-1.1L17.9-1.1Q21.25-1.1 24.05-2.75 26.85-4.4 28.5-7.3 30.15-10.2 30.15-13.8L30.15-13.8 30.15-32.95 14.55-32.95 14.55-34.8 31.95-34.8 31.95-13.8Q31.95-9.7 30.08-6.38 28.2-3.05 24.98-1.15 21.75 0.75 17.9 0.75L17.9 0.75ZM45.8-10.55L45.8 0 43.95 0 43.95-34.8 57.95-34.8Q61.45-34.8 64.42-33.3 67.4-31.8 69.15-29.05 70.9-26.3 70.9-22.7L70.9-22.7Q70.9-19.25 69.12-16.35 67.35-13.45 64.3-11.9L64.3-11.9Q61.65-10.55 57.95-10.55L57.95-10.55 45.8-10.55ZM45.8-32.95L45.8-12.4 57.95-12.4Q61.15-12.4 63.2-13.4L63.2-13.4Q65.85-14.65 67.45-17.15 69.05-19.65 69.05-22.7L69.05-22.7Q69.05-25.7 67.45-28.2 65.85-30.7 63.15-31.95L63.15-31.95Q61.1-32.95 57.95-32.95L57.95-32.95 45.8-32.95ZM80.55-13.3Q80.55-10 82.22-7.2 83.9-4.4 86.72-2.75 89.55-1.1 92.84-1.1L92.84-1.1Q96.25-1.1 99-2.45 101.75-3.8 103.32-6.2 104.9-8.6 104.95-11.6L104.95-11.6 106.75-11.6Q106.75-8.15 104.92-5.33 103.09-2.5 99.92-0.88 96.75 0.75 92.84 0.75L92.84 0.75Q89.05 0.75 85.8-1.15 82.55-3.05 80.65-6.28 78.75-9.5 78.75-13.3L78.75-13.3 78.75-21.5Q78.75-25.3 80.62-28.53 82.5-31.75 85.72-33.65 88.95-35.55 92.75-35.55L92.75-35.55Q96.59-35.55 99.77-33.93 102.95-32.3 104.8-29.48 106.65-26.65 106.65-23.2L106.65-23.2 104.84-23.2Q104.8-26.2 103.2-28.6 101.59-31 98.87-32.35 96.15-33.7 92.75-33.7L92.75-33.7Q89.45-33.7 86.65-32.05 83.84-30.4 82.2-27.6 80.55-24.8 80.55-21.5L80.55-21.5 80.55-13.3Z"/></svg></g></svg></g></svg></g></svg></g><g><svg width="244.43136" height="244.43136" viewBox="0 0 244.43136 244.43136"><g><svg id="icon-0" data-fill-palette-color="accent" class="icon-icon-0" width="244.43136" height="244.43136" xml:space="preserve" style="enable-background:new 0 0 64 64;" viewBox="2 2 60 60" y="0" x="0" version="1.1" xmlns:xlink="http://www.w3.org/1999/xlink" xmlns="http://www.w3.org/2000/svg"><path data-fill-palette-color="accent" fill="#000000" d="M13.464 36.8A7.94 7.94 0 0 0 10 36C5.589 36 2 39.589 2 44S5.589 52 10 52A8 8 0 0 0 16.648 48.443L24.205 52.226A8 8 0 0 0 24 54C24 58.411 27.589 62 32 62S40 58.411 40 54A7.95 7.95 0 0 0 38.625 49.522L49.244 38.419A7.96 7.96 0 0 0 54 40C58.411 40 62 36.411 62 32S58.411 24 54 24A7.95 7.95 0 0 0 49.102 25.688L38.312 14.898A7.95 7.95 0 0 0 40 10C40 5.589 36.411 2 32 2S24 5.589 24 10C24 10.608 24.074 11.199 24.204 11.769L17.112 14.353C15.782 11.772 13.097 10 10 10 5.589 10 2 13.589 2 18S5.589 26 10 26A7.9 7.9 0 0 0 13.2 25.327L16.881 31.522zM10 50C6.691 50 4 47.309 4 44S6.691 38 10 38 16 40.691 16 44 13.309 50 10 50M17.539 46.651A8 8 0 0 0 18 44 7.98 7.98 0 0 0 15.145 37.883L18.021 33.441 26.692 48.032A8 8 0 0 0 24.898 50.335zM32 18A7.95 7.95 0 0 0 36.898 16.312L47.689 27.103A8 8 0 0 0 46.279 29.942L39.997 29.078C39.996 29.052 40 29.026 40 29 40 24.589 36.411 21 32 21A8 8 0 0 0 25.352 24.557L24.159 23.961 28.537 17.2C29.586 17.707 30.758 18 32 18M33 46.069V36.93A8.01 8.01 0 0 0 39.722 31.058L46.004 31.922C46.004 31.948 46 31.974 46 32 46 33.91 46.674 35.663 47.795 37.04L37.295 48.019A7.97 7.97 0 0 0 33 46.069M32 23C35.309 23 38 25.691 38 29S35.309 35 32 35 26 32.309 26 29 28.691 23 32 23M24.461 26.349A8 8 0 0 0 24 29C24 33.072 27.06 36.436 31 36.931V46.07A7.9 7.9 0 0 0 28.342 46.894L19.234 31.567 23.065 25.651zM32 60C28.691 60 26 57.309 26 54S28.691 48 32 48 38 50.691 38 54 35.309 60 32 60M54 26C57.309 26 60 28.691 60 32S57.309 38 54 38 48 35.309 48 32 50.691 26 54 26M32 4C35.309 4 38 6.691 38 10S35.309 16 32 16 26 13.309 26 10 28.691 4 32 4M24.888 13.647A8.1 8.1 0 0 0 26.855 16.117L22.359 23.061 17.539 20.651A8 8 0 0 0 18 18C18 17.392 17.926 16.801 17.796 16.231zM4 18C4 14.691 6.691 12 10 12S16 14.691 16 18 13.309 24 10 24 4 21.309 4 18M14.915 24.299A8 8 0 0 0 16.648 22.443L21.265 24.751 18.094 29.648z"/></svg></g></svg></g></svg></g><defs/></svg><rect visibility="hidden" stroke="none" fill="none" height="143.6646691293135" width="395.52"/></g></svg></g></svg>