<svg xmlns="http://www.w3.org/2000/svg" xmlns:xlink="http://www.w3.org/1999/xlink" version="1.1" width="396.81257" height="411.26216" viewBox="0 0 396.81257 411.26216">
<defs>
<clipPath id="clip_0">
<path transform="matrix(1,0,0,-1,-99.14646,656.4462)" d="M99.14646 245.1841H495.959V656.4462H99.14646Z" fill-rule="evenodd"/>
</clipPath>
<clipPath id="clip_1">
<path transform="matrix(1,0,0,-1,-99.14646,656.4462)" d="M0 0H595.276V841.89H0Z"/>
</clipPath>
</defs>
<g clip-path="url(#clip_0)">
<g clip-path="url(#clip_1)">
<text xml:space="preserve" transform="matrix(1.0099504 0 -0 .99014768 -99.14646 656.4462)" font-size="10.061731" font-family="NimbusRomNo9L"><tspan y="-767.4886" x="98.656337 106.48436 110.951778 113.74894 118.7798 123.247219 131.07524 135.54265 138.3398 141.13697 145.60437 149.51839 155.09259 159.56 164.59087 172.55976 175.35692 180.38779 187.80327 192.27068 197.30155 200.6521 208.05753 210.85469 213.65186 218.68273 222.03328 226.50069 229.85124 237.82013 240.61728 247.47939 253.15419 258.18507 263.2159 268.2468 276.2157 279.01286 281.81 286.84086 291.3083 298.16035 303.1912 309.4798 313.9472 318.9781 324.00898 328.47639 335.47938 342.74394 347.7748 350.57197 353.3691 358.29936 365.71485 370.03135 375.0622 377.85935 381.77339 384.57054 387.36769 392.39857 400.36747 403.16459 410.9926 416.0235 418.82066 423.28807 431.1161 435.5835 440.61439 443.41154 447.87895 450.6761 453.47325 458.50413 463.53498 467.449">mathematics,andthecorelibraryis&#x003c;1000linesofcode.Unlikeexistingimplementations,</tspan></text>
<text xml:space="preserve" transform="matrix(1.0099504 0 -0 .99014768 -99.14646 656.4462)" font-size="10.061731" font-family="NimbusRomNo9L"><tspan y="-767.4886" x="473.27275 477.68986 483.78727">JPC</tspan></text>
<text xml:space="preserve" transform="matrix(1.0099504 0 -0 .99014768 -99.14646 656.4462)" font-size="10.061731" font-family="NimbusRomNo9L"><tspan y="-756.471" x="98.656337 101.4535 105.669368 110.55937 115.02678 118.377338 122.84475 127.87561 132.34302 140.1006 145.13149 148.48204 153.5129 156.31006 161.34091 165.80832 169.15888 178.04338 183.07425 185.87142 188.97043 192.32099 196.78839 200.13895 204.60634 209.6372 212.43437 215.23154 219.69893 226.34973 230.80709 235.83795 240.86882 245.33623 248.13339 250.93056 255.96141 264.84596 268.75999 273.79084 276.58799 281.46794 285.93537 289.28593 297.0536 300.40419 307.66874 314.93333 321.08103 328.27519 331.07234 339.95689 342.75404 347.78489 350.58204 354.89854 359.9294 363.27998 367.74739 370.54454 378.8656 381.66276 386.69364 395.0147 400.04557 403.39616 407.86357 412.89445 415.6916 420.14897 425.1798 431.83064 437.42497 442.21434 453.32249 456.11964 461.1505 464.50108 468.9685 472.31907 476.7865 481.81736 486.2848">leveragesordinarydifferentialequationsolvers(ODE)tointegratethegradient&#xfb02;owinference</tspan></text>
<text xml:space="preserve" transform="matrix(.98994949 0 -0 1.0101526 -99.14646 656.4462)" font-size="9.862471" font-family="NimbusRomNo9L"><tspan y="-730.6906" x="100.64958 105.58082 110.512058 115.4433 119.82223 127.49523 130.237 134.61595 140.83917 145.7704 151.43146 156.915 163.49326 170.61397 174.45047">dynamicsofPCNs.</tspan></text>
<text xml:space="preserve" transform="matrix(.98994949 0 -0 1.0101526 -99.14646 656.4462)" font-size="9.862471" font-family="NimbusRomNo9L"><tspan y="-730.6906" x="180.24355 184.57317 190.54984">JPC</tspan></text>
<text xml:space="preserve" transform="matrix(.98994949 0 -0 1.0101526 -99.14646 656.4462)" font-size="9.862471" font-family="NimbusRomNo9L"><tspan y="-730.6906" x="199.75162 204.13056 206.87233 210.70883 218.02678 222.95801 226.2422 231.01564 235.94687 238.68865 243.61988 247.99881 254.22203 258.05854 262.98979 270.66279 277.41859 280.16035 285.09159 289.47053 294.40177 297.68598 302.0649 304.80668 307.54844 311.92738 316.3063 321.43479 324.17655 329.1078 334.03904 336.7808 342.99415 345.7359 350.66716 355.04609 360.17457 364.55354 368.93247 376.24058 381.1718 387.93748 392.8687 396.7052 401.08415 408.40214 411.1439 418.45198 422.28849 425.03025 429.9615 434.89274 442.2107 446.58964 451.52088 458.82899 463.76023 468.69148 471.43324 475.81217 480.7434 483.48518 486.22694 490.60588 493.34764 496.0894">alsoprovidessometheoreticaltoolsthatcanbeusedtostudyandpotentially</tspan></text>
<text xml:space="preserve" transform="matrix(1 0 -0 1 -99.14646 656.4462)" font-size="9.9626" font-family="NimbusRomNo9L"><tspan y="-727.2" x="99.638 102.4076 107.3889 111.812297 116.793598 119.563198 122.332798 125.65034 133.12229 138.10358 141.42113 146.40242 151.38372 154.15332 158.57672 166.32762 172.69373 179.88672 182.65633 185.42594 192.89788 198.43708 205.08213 212.27512 216.15058">identifyproblemswithPCNs.</tspan></text>
<text xml:space="preserve" transform="matrix(1.0099504 0 -0 .99014768 -99.14646 656.4462)" font-size="10.061731" font-family="NimbusRomNo9L"><tspan y="-717.88388" x="98.35038 104.4981 109.52896 116.64262 119.99317 124.46058 128.3746 133.818 138.84886 144.83559 147.63275 152.66362 159.77725 164.80812 169.27553 174.30638 178.77379 184.77059 187.56775 194.12799 198.04199 200.83916 204.18972 209.22058 213.68798 216.48514 221.51602 224.86658 229.33397 237.01108 241.47849 248.03873 251.38928 256.42015 259.2173 262.01445 266.79377 274.05833 277.97236 284.07984 291.3444 294.69496 297.4921 301.95954 307.95637 315.07 320.1009 323.45146 326.2486 330.71604 336.71284 340.06343 344.27928 349.31016 352.1073 356.33323 366.24406 371.2749 377.26167 382.856 392.2134 395.564">Therestofthepaperisstructuredasfollows.AfterabriefreviewofPC(&#x00a7;</tspan></text>
<text fill="#ff0000" xml:space="preserve" transform="matrix(1.0099504 0 -0 .99014768 -99.14646 656.4462)" font-size="10.061731" font-family="NimbusRomNo9L"><tspan y="-717.88388" x="400.59483">2</tspan></text>
<text xml:space="preserve" transform="matrix(1.0099504 0 -0 .99014768 -99.14646 656.4462)" font-size="10.061731" font-family="NimbusRomNo9L"><tspan y="-717.88388" x="405.62568 408.97627 414.17817 421.44276 428.5564 432.47044 437.5013 442.29069 449.55528 454.02268 458.49009 462.4041 469.5178 473.43183 478.46269 486.2907">),weshowcasesome</tspan></text>
<text xml:space="preserve" transform="matrix(1.003992 0 -0 .99602386 -99.14646 656.4462)" font-size="10.002371" font-family="NimbusRomNo9L"><tspan y="-702.69607" x="99.24184 103.682888 111.46473 116.46592 119.24658 122.57737 125.35803 129.79909 134.24015 139.50139 142.83219 147.27324 151.16416 156.16535 158.946 161.72667 168.09818 171.98909 176.99028 181.74141 188.96312 191.74378 196.74497 204.22673 207.0074 212.00858 216.44965 221.71089 228.63254 232.52347 236.96453 241.40558 246.40676 251.40795 256.40916 259.73994 264.74113 268.0719 273.0731 277.51414 283.3155 290.53724 297.75895 306.35096 310.24189 315.24308 318.0237 322.87489 327.31593 333.1273 337.56834 342.00938 349.49113 353.93217 358.3732 363.3744 366.15504 370.346 375.20716 382.11878 386.0097 388.79035 393.79154 398.79273 401.57337 407.1347 411.57575 416.01679 421.01799 423.7986 426.57926 434.06105 437.29179 441.73283 445.62376 448.4044 452.84547 458.6568 461.9876 466.9888 471.98997 474.77064 477.55128 485.3331 489.77415">empiricalresultsshowingthatasecond-orderODEsolvercanachievesigni&#xfb01;cantlyfasterruntimes</tspan></text>
<text xml:space="preserve" transform="matrix(.9969955 0 -0 1.0030136 -99.14646 656.4462)" font-size="9.932667" font-family="NimbusRomNo9L"><tspan y="-686.92288" x="99.938259 102.69954 107.66587 112.075969 119.525478 123.389278 126.15056 130.56066 135.527 140.49333 144.90343 148.21102 155.6605 161.72937 166.69571 169.457 173.8671 179.65784 182.41913 187.38547 190.14676 194.40787 199.3742 202.68178 207.09188 209.85317 212.61446 217.58078 225.03029 229.99663 235.7973 238.5586 243.52494 250.4182 255.38454 258.6921 263.1022 268.06855 270.82984 275.23994 280.20628 285.4507 290.9733 295.69136 305.3459 310.86848 319.97676 322.738 327.70436 331.01194 335.42204 338.7296 343.1397 348.10606 352.51615 359.40943 364.37577 369.3421 374.3084 378.71855 386.44615 389.20744 393.61753 397.48136 402.4477 409.61909 412.38038 415.14164 422.60108 427.01118 431.9775 439.70515 444.67149 449.08158 452.38914 456.79927 461.7656 464.51695 471.42015 476.38648 480.79658 484.10417 487.4117 492.37806 495.48698">thanstandardEulerintegrationofthegradient&#xfb02;owPCinferencedynamics,withcomparableperfor-</tspan></text>
<text xml:space="preserve" transform="matrix(1.0099504 0 -0 .99014768 -99.14646 656.4462)" font-size="10.061731" font-family="NimbusRomNo9L"><tspan y="-684.8312" x="98.656337 106.48436 110.951778 115.982639 120.45005 127.38258 132.41345 139.90946 144.94033 147.73749 150.8365 154.18706 158.65447 162.00502 166.47243 171.50328 176.76558 181.79644 186.26384 189.061 193.52841 197.44242 201.90982 204.70699 211.08612 215.55353 220.5844 228.0804 233.11127 237.57868 240.37584 247.53978 252.57067 255.92124 260.9521 267.33128 270.68183">manceondifferentdatasetsandnetworks(&#x00a7;</tspan></text>
<text fill="#ff0000" xml:space="preserve" transform="matrix(1.0099504 0 -0 .99014768 -99.14646 656.4462)" font-size="10.061731" font-family="NimbusRomNo9L"><tspan y="-684.8312" x="275.71266">3</tspan></text>
<text xml:space="preserve" transform="matrix(1.0099504 0 -0 .99014768 -99.14646 656.4462)" font-size="10.061731" font-family="NimbusRomNo9L"><tspan y="-684.8312" x="280.74348 284.09407 289.66825 298.37165 305.30418 308.10133 313.1322 317.5996 325.0956 329.4121 334.44297 339.47386 342.271 346.7384 349.53556 357.03157 359.8287 364.8596 371.79216 374.5893 377.38645 382.4173 385.76789 390.2353 393.58589 398.61674 401.42399 407.80314 412.27055 417.30143 420.652 427.58454 430.38169 438.20973 443.2406 446.03776 450.50517 458.3332 462.8006 467.83149 470.62864 475.09605 477.8932 480.69035 485.72123">).Wethenexplainthelibrary&#x2019;scoreimplementation</tspan></text>
<text xml:space="preserve" transform="matrix(1 0 -0 1 -99.14646 656.4462)" font-size="9.9626" font-family="NimbusRomNo9L"><tspan y="-667.175" x="99.309 102.62654">(&#x00a7;</tspan></text>
<text fill="#ff0000" xml:space="preserve" transform="matrix(1 0 -0 1 -99.14646 656.4462)" font-size="9.9626" font-family="NimbusRomNo9L"><tspan y="-667.175" x="107.6078">4</tspan></text>
<text xml:space="preserve" transform="matrix(1 0 -0 1 -99.14646 656.4462)" font-size="9.9626" font-family="NimbusRomNo9L"><tspan y="-667.175" x="112.5891 115.90665 120.88794 125.86924 130.29264 133.61019 138.59148 141.90903 148.82308 153.24648 158.22777 163.20906 167.63246 170.40207 175.38336 180.36466 183.13426 188.11556 195.5875 202.78049 205.5501 208.3197 215.79164 220.77294 225.75423 229.62969 233.50514 236.27475 241.25605 244.02565 250.9397 255.21366 260.19496 262.96455 267.38795 272.36924 276.2447 279.01429 283.99559 288.97688 295.343 298.66053">),beforeconcludingwithpossibleextensions(&#x00a7;</tspan></text>
<text fill="#ff0000" xml:space="preserve" transform="matrix(1 0 -0 1 -99.14646 656.4462)" font-size="9.9626" font-family="NimbusRomNo9L"><tspan y="-667.175" x="303.6419">5</tspan></text>
<text xml:space="preserve" transform="matrix(1 0 -0 1 -99.14646 656.4462)" font-size="9.9626" font-family="NimbusRomNo9L"><tspan y="-667.175" x="308.6232 311.94075">).</tspan></text>
<path transform="matrix(1,0,0,-1,-99.14646,656.4462)" d="M99.638 249.642V651.7937C99.638 654.1421 101.5416 656.0457 103.89 656.0457H491.3911C493.7394 656.0457 495.6431 654.1421 495.6431 651.7937V249.642C495.6431 247.2936 493.7394 245.39 491.3911 245.39H103.89C101.5416 245.39 99.638 247.2936 99.638 249.642Z" fill="#006060"/>
<path transform="matrix(1,0,0,-1,-99.14646,656.4462)" d="M101.0553 249.642V640.6875H494.2258V249.642C494.2258 248.0764 492.9567 246.8073 491.3911 246.8073H103.89C102.3244 246.8073 101.0553 248.0764 101.0553 249.642Z" fill="#f2f9f9"/>
<text xml:space="preserve" transform="matrix(1 0 -0 1 -99.14646 656.4462)" font-size="11.9552" font-family="NimbusRomNo9L" font-weight="bold"><tspan y="-623.942" x="115.228 133.1608 140.46543 145.55834 150.86644 157.51354 160.83708 166.14519 170.12627 173.33026 179.18831 187.48522 192.79332 198.77092 205.41802 208.74156 215.38866 221.36626 229.05345 240.6739 247.321 252.6291 255.95265 265.91136 271.21946">2Predictivecoding:Aprimer</tspan></text>
<text xml:space="preserve" transform="matrix(.99548986 0 -0 1.0045306 -99.14646 656.4462)" font-size="9.917667" font-family="NimbusRomNo9L"><tspan y="-603.5735" x="115.75005 122.91061 127.31406 130.61664 137.52925 144.68982 151.60243 154.35955 159.31838 163.72182 166.47893 171.43776 176.39659 183.31912 190.23174 197.9477 200.7048 205.66364 208.42075 216.13669 220.54015 225.80641 230.76525 234.06783 238.47129 242.32926 246.73271 251.69155 254.44866 258.85209 261.60923 264.36634 269.32518 276.79319 281.752 287.56376 293.07798 302.20225 307.16108 311.5645 315.96794 320.37138 324.22935 328.0873 332.49076 335.79335 343.27128 346.02839 353.4964 358.45524 362.85865 368.12498 371.98295 374.74006 379.1435 382.44609 385.20323 389.60664 397.07466 404.2352 406.99235 409.74946">HereweincludeaminimalpresentationofPCnecessarytogetstartedwith</tspan></text>
<text xml:space="preserve" transform="matrix(.99548986 0 -0 1.0045306 -99.14646 656.4462)" font-size="9.917667" font-family="NimbusRomNo9L"><tspan y="-603.5735" x="417.46989 421.82377 427.83387">JPC</tspan></text>
<text xml:space="preserve" transform="matrix(.99548986 0 -0 1.0045306 -99.14646 656.4462)" font-size="9.917667" font-family="NimbusRomNo9L"><tspan y="-603.5735" x="434.69459 439.68318 445.7429 450.70173 457.61433 460.91694 465.32035 469.7238 474.68263 479.08607">.Thereader</tspan></text>
<text xml:space="preserve" transform="matrix(1 0 -0 1 -99.14646 656.4462)" font-size="9.9626" font-family="NimbusRomNo9L"><tspan y="-595.399" x="115.228 117.9976 124.36369 127.68124 132.10463 135.42218 139.84558 143.16313 146.48069 150.90409 158.37602 161.14563 168.61757">isreferredto[</tspan></text>
<text fill="#ff7f00" xml:space="preserve" transform="matrix(1 0 -0 1 -99.14646 656.4462)" font-size="9.9626" font-family="NimbusRomNo9L"><tspan y="-595.399" x="171.9351 176.9164">14</tspan></text>
<text xml:space="preserve" transform="matrix(1 0 -0 1 -99.14646 656.4462)" font-size="9.9626" font-family="NimbusRomNo9L"><tspan y="-595.399" x="181.8977">,</tspan></text>
<text fill="#ff7f00" xml:space="preserve" transform="matrix(1 0 -0 1 -99.14646 656.4462)" font-size="9.9626" font-family="NimbusRomNo9L"><tspan y="-595.399" x="186.879">8</tspan></text>
<text xml:space="preserve" transform="matrix(1 0 -0 1 -99.14646 656.4462)" font-size="9.9626" font-family="NimbusRomNo9L"><tspan y="-595.399" x="191.8603">,</tspan></text>
<text fill="#ff7f00" xml:space="preserve" transform="matrix(1 0 -0 1 -99.14646 656.4462)" font-size="9.9626" font-family="NimbusRomNo9L"><tspan y="-595.399" x="196.8416">7</tspan></text>
<text xml:space="preserve" transform="matrix(1 0 -0 1 -99.14646 656.4462)" font-size="9.9626" font-family="NimbusRomNo9L"><tspan y="-595.399" x="201.8229">,</tspan></text>
<text fill="#ff7f00" xml:space="preserve" transform="matrix(1 0 -0 1 -99.14646 656.4462)" font-size="9.9626" font-family="NimbusRomNo9L"><tspan y="-595.399" x="206.8042 211.78549">12</tspan></text>
<text xml:space="preserve" transform="matrix(1 0 -0 1 -99.14646 656.4462)" font-size="9.9626" font-family="NimbusRomNo9L"><tspan y="-595.399" x="216.7668 222.575 225.89255 230.87384 236.68204 239.99959 244.17392 249.15522 251.92482 256.09916 263.29216 269.65827 274.08168 279.06297 286.5349 289.3045 296.77647">]forreviewsandto[</tspan></text>
<text fill="#ff7f00" xml:space="preserve" transform="matrix(1 0 -0 1 -99.14646 656.4462)" font-size="9.9626" font-family="NimbusRomNo9L"><tspan y="-595.399" x="300.094">1</tspan></text>
<text xml:space="preserve" transform="matrix(1 0 -0 1 -99.14646 656.4462)" font-size="9.9626" font-family="NimbusRomNo9L"><tspan y="-595.399" x="305.0753 310.88349 314.20103 319.1823 324.9905 331.90458 339.6555 344.63679 347.9543 354.86839 358.1859 363.1672 366.48475 374.23567 378.65907 383.9193 386.6889 390.00645 394.42985 398.85325 401.62284 409.37376 413.79716 418.77845 421.54804">]foramoreformaltreatment.</tspan></text>
<text xml:space="preserve" transform="matrix(.98994949 0 -0 1.0101526 -99.14646 656.4462)" font-size="9.862471" font-family="NimbusRomNo9L"><tspan y="-567.8162" x="116.39786 121.88139 128.45966 135.58037 141.94167 146.3206 149.60482 156.49868 159.24045 164.17168 169.1029 171.84468 176.22364 180.60257 183.34435 186.08612 193.54215 198.47338 202.85231 208.33585 213.26708 217.64601 225.10204 230.03328 237.4893 241.86824 249.31439 253.69335 258.62458 263.00355 266.1102 271.04145 278.49748 281.78169 286.71293 291.64418 296.0231 298.76487 301.50663 306.43788 313.88404 321.00474 325.93598 328.67774 333.0567 340.51274 343.2545 349.61579 356.50965 360.34617 365.2774 375.47523 380.40647 386.21546 390.05195 394.9832 399.91444 404.29338 407.57759 411.9565 419.41258 424.3438 427.628 432.00694 436.9382 439.67994 444.0589 446.80067 449.53254 454.46379 461.91984 466.29878 469.58299 472.86717 477.7984 481.0826">PCNsaretypicallyde&#xfb01;nedbyanenergyfunctionwhichisasumofsquaredpredictionerrors</tspan></text>
<text xml:space="preserve" transform="matrix(1 0 -0 1 -99.14646 656.4462)" font-size="9.9626" font-family="NimbusRomNo9L"><tspan y="-562.672" x="115.228 119.65139 124.07478 127.39233 132.37363 136.24909 142.61519 145.3848 149.8082 154.78949 159.21289 162.53044 166.4059 171.38719 175.8106 180.79189 188.26383 195.45682 200.43811 203.20772 207.63112 215.10306 218.42061 223.4019 229.2101 236.12415 239.9996 242.76921 247.19261 252.1739 257.1552 261.5786 264.89616 272.3681 275.68565 280.10905 284.53245 289.51374 292.83128 297.81257 301.1301 308.22346 312.64686 315.9644 323.43635 328.41764 332.84104 335.61064 342.70399 347.68528 351.0028 358.47477 361.24436 365.66777 370.5494 374.9728 381.33894 384.10853 389.0898 396.00389 399.3214 404.3027 407.62025">acrosslayers,andwhichforastandardfeedforwardnetworktakestheform</tspan></text>
<text xml:space="preserve" transform="matrix(1 0 -0 1 -99.14646 656.4462)" font-size="9.9626" font-family="CMSY10" font-style="italic"><tspan y="-534.33" x="234.946">F</tspan></text>
<text xml:space="preserve" transform="matrix(1 0 -0 1 -99.14646 656.4462)" font-size="9.9626" font-family="CMR10"><tspan y="-534.33" x="245.863">=</tspan></text>
<text xml:space="preserve" transform="matrix(1 0 -0 1 -99.14646 656.4462)" font-size="6.9738" font-family="CMMI7" font-style="italic"><tspan y="-546.783" x="260.842">L</tspan></text>
<text xml:space="preserve" transform="matrix(1 0 -0 1 -99.14646 656.4462)" font-size="9.9626" font-family="CMEX10"><tspan y="-543.794" x="256.379">X</tspan></text>
<text xml:space="preserve" transform="matrix(1 0 -0 1 -99.14646 656.4462)" font-size="6.9738" font-family="CMMI7" font-style="italic"><tspan y="-522.347" x="256.863">`</tspan></text>
<text xml:space="preserve" transform="matrix(1 0 -0 1 -99.14646 656.4462)" font-size="6.9738" font-family="CMR7"><tspan y="-522.347" x="260.198 266.31404">=1</tspan></text>
<text xml:space="preserve" transform="matrix(1 0 -0 1 -99.14646 656.4462)" font-size="9.9626" font-family="CMSY10" font-style="italic"><tspan y="-534.33" x="272.43 275.1976">||</tspan></text>
<text xml:space="preserve" transform="matrix(1 0 -0 1 -99.14646 656.4462)" font-size="9.9626" font-family="CMBX10" font-weight="bold"><tspan y="-534.33" x="277.965">z</tspan></text>
<text xml:space="preserve" transform="matrix(1 0 -0 1 -99.14646 656.4462)" font-size="6.9738" font-family="CMMI7" font-style="italic"><tspan y="-532.835" x="283.057">`</tspan></text>
<text xml:space="preserve" transform="matrix(1 0 -0 1 -99.14646 656.4462)" font-size="9.9626" font-family="CMSY10" font-style="italic"><tspan y="-534.33" x="289.104">&#x2212;</tspan></text>
<text xml:space="preserve" transform="matrix(1 0 -0 1 -99.14646 656.4462)" font-size="9.9626" font-family="CMMI10" font-style="italic"><tspan y="-534.33" x="299.066">f</tspan></text>
<text xml:space="preserve" transform="matrix(1 0 -0 1 -99.14646 656.4462)" font-size="6.9738" font-family="CMMI7" font-style="italic"><tspan y="-532.835" x="303.944">`</tspan></text>
<text xml:space="preserve" transform="matrix(1 0 -0 1 -99.14646 656.4462)" font-size="9.9626" font-family="CMR10"><tspan y="-534.33" x="307.777">(</tspan></text>
<text xml:space="preserve" transform="matrix(1 0 -0 1 -99.14646 656.4462)" font-size="9.9626" font-family="CMBX10" font-weight="bold"><tspan y="-534.33" x="311.651">W</tspan></text>
<text xml:space="preserve" transform="matrix(1 0 -0 1 -99.14646 656.4462)" font-size="6.9738" font-family="CMMI7" font-style="italic"><tspan y="-532.835" x="323.496">`</tspan></text>
<text xml:space="preserve" transform="matrix(1 0 -0 1 -99.14646 656.4462)" font-size="9.9626" font-family="CMBX10" font-weight="bold"><tspan y="-534.33" x="327.328">z</tspan></text>
<text xml:space="preserve" transform="matrix(1 0 -0 1 -99.14646 656.4462)" font-size="6.9738" font-family="CMMI7" font-style="italic"><tspan y="-532.835" x="332.42">`</tspan></text>
<text xml:space="preserve" transform="matrix(1 0 -0 1 -99.14646 656.4462)" font-size="6.9738" font-family="CMSY7" font-style="italic"><tspan y="-532.835" x="335.755">&#x2212;</tspan></text>
<text xml:space="preserve" transform="matrix(1 0 -0 1 -99.14646 656.4462)" font-size="6.9738" font-family="CMR7"><tspan y="-532.835" x="341.982">1</tspan></text>
<text xml:space="preserve" transform="matrix(1 0 -0 1 -99.14646 656.4462)" font-size="9.9626" font-family="CMR10"><tspan y="-534.33" x="346.451">)</tspan></text>
<text xml:space="preserve" transform="matrix(1 0 -0 1 -99.14646 656.4462)" font-size="9.9626" font-family="CMSY10" font-style="italic"><tspan y="-534.33" x="350.326 353.0936">||</tspan></text>
<text xml:space="preserve" transform="matrix(1 0 -0 1 -99.14646 656.4462)" font-size="6.9738" font-family="CMR7"><tspan y="-538.443" x="355.86">2</tspan></text>
<text xml:space="preserve" transform="matrix(1 0 -0 1 -99.14646 656.4462)" font-size="9.9626" font-family="NimbusRomNo9L"><tspan y="-534.33" x="469.098 472.41554 477.39683">(1)</tspan></text>
<text xml:space="preserve" transform="matrix(1.0099504 0 -0 .99014768 -99.14646 656.4462)" font-size="10.061731" font-family="NimbusRomNo9L"><tspan y="-511.5015" x="113.738269 121.00283 126.0337 130.5011 133.85166">where</tspan></text>
<text xml:space="preserve" transform="matrix(1 0 -0 1 -99.14646 656.4462)" font-size="9.9626" font-family="CMBX10" font-weight="bold"><tspan y="-506.462" x="143.252">z</tspan></text>
<text xml:space="preserve" transform="matrix(1 0 -0 1 -99.14646 656.4462)" font-size="6.9738" font-family="CMMI7" font-style="italic"><tspan y="-504.967" x="148.344">`</tspan></text>
<text xml:space="preserve" transform="matrix(1.0099504 0 -0 .99014768 -99.14646 656.4462)" font-size="10.061731" font-family="NimbusRomNo9L"><tspan y="-511.5015" x="154.20064 156.9978 164.43343 167.23059 172.26146 180.25046 184.71787 189.18527 191.98244 194.53812 199.56899 202.36615 205.16332 213.71579 218.74666 225.61882 233.60782 238.6387 241.18433 246.07433 250.54174 259.09419 261.89134 266.35877 271.38963 275.85707 282.72923 287.19664 292.2275">istheactivityofagivenlayerand</tspan></text>
<text xml:space="preserve" transform="matrix(1 0 -0 1 -99.14646 656.4462)" font-size="9.9626" font-family="CMMI10" font-style="italic"><tspan y="-506.462" x="303.771">f</tspan></text>
<text xml:space="preserve" transform="matrix(1 0 -0 1 -99.14646 656.4462)" font-size="6.9738" font-family="CMMI7" font-style="italic"><tspan y="-504.967" x="308.648">`</tspan></text>
<text xml:space="preserve" transform="matrix(1.0099504 0 -0 .99014768 -99.14646 656.4462)" font-size="10.061731" font-family="NimbusRomNo9L"><tspan y="-511.5015" x="312.92527 315.7224 323.15806 327.07209 332.10295 339.93098 347.91999 352.38743 356.85484 359.65199 362.20765 366.98695 371.45439 374.25154 377.04869 382.07954 390.63203 393.98258 399.01347 404.04435 408.51176 411.3089 414.10606 419.13694 424.1678 432.91145 441.62489 449.6139 452.41105 457.44194 462.4728 467.50367 470.85426">issomeactivationfunction.Weignore</tspan></text>
<text xml:space="preserve" transform="matrix(1 0 -0 1 -99.14646 656.4462)" font-size="9.9626" font-family="NimbusRomNo9L"><tspan y="-495.553" x="115.228 122.9789 127.9602 130.7298 133.4994 136.26902 141.2503 144.01992 150.93396 155.91526 160.33866 163.10826 170.02231 175.0036 179.9849 182.7545 187.7358 190.5054 196.8715 201.2949 206.2762 213.74814 218.72943 221.49904 225.92244 229.7979 234.2213 240.5874 243.90496 248.88625 254.69445 258.5699 261.33949 269.0904 274.0717 276.84129 279.61088 284.03428 286.80387 289.57347 293.90718">multipledatapointsandbiasesforsimplicity.</tspan></text>
<text xml:space="preserve" transform="matrix(1.0099504 0 -0 .99014768 -99.14646 656.4462)" font-size="10.061731" font-family="NimbusRomNo9L"><tspan y="-478.44886" x="113.78677 119.14968 126.867038 129.6642 133.01476 137.48217 140.27933 148.00673 155.17067 160.765 167.47617 174.74074 179.94266 182.73983 187.77068 194.93462 197.73178 202.19919 206.1132 211.6069 214.40407 218.87148 223.90233 228.36974 234.41684 237.214 243.8145 248.28189 251.07906 255.54648 263.3745 268.40538 272.8728 280.60023 283.39738 291.12483 295.03883 300.0697 307.89775 315.05165 320.08253 324.54994 327.34709 331.81449">TotrainaPCN,thelastlayerisclampedtosomedata,</tspan></text>
<text xml:space="preserve" transform="matrix(1 0 -0 1 -99.14646 656.4462)" font-size="9.9626" font-family="CMBX10" font-weight="bold"><tspan y="-473.735" x="340.44">z</tspan></text>
<text xml:space="preserve" transform="matrix(1 0 -0 1 -99.14646 656.4462)" font-size="6.9738" font-family="CMMI7" font-style="italic"><tspan y="-472.24" x="345.532">L</tspan></text>
<text xml:space="preserve" transform="matrix(1 0 -0 1 -99.14646 656.4462)" font-size="9.9626" font-family="CMR10"><tspan y="-474.08" x="354.689">:</tspan></text>
<text xml:space="preserve" transform="matrix(1 0 -0 1 -99.14646 656.4462)" font-size="9.9626" font-family="CMR10"><tspan y="-473.734" x="356.792">=</tspan></text>
<text xml:space="preserve" transform="matrix(1 0 -0 1 -99.14646 656.4462)" font-size="9.9626" font-family="CMBX10" font-weight="bold"><tspan y="-473.734" x="367.734">y</tspan></text>
<text xml:space="preserve" transform="matrix(1.0099504 0 -0 .99014768 -99.14646 656.4462)" font-size="10.061731" font-family="NimbusRomNo9L"><tspan y="-478.44886" x="370.25584 376.51423 382.66194 387.6928 390.48997 397.10057 401.5579 406.58879 411.61967 414.4168 422.14424 427.1751 434.33909 441.50306 444.3002 448.7676 453.7985 458.2659 463.74958 467.10014 472.131">.Thiscouldbealabelfor</tspan></text>
<text xml:space="preserve" transform="matrix(1.0074722 0 -0 .9925833 -99.14646 656.4462)" font-size="10.037042" font-family="NimbusRomNo9L"><tspan y="-466.28334" x="114.37338 118.82983 121.62013 126.07658 129.98099 133.88539 136.67569 142.25629 146.71274 151.16918 153.95948 156.74977 161.76828 169.26595 174.28447 180.10596 184.56241 192.06008 194.85037 202.6592 207.11565 212.13416 219.06977 222.4121 227.4306 233.24207 238.26058 242.71703 247.73554 252.19199 255.5343 259.99076 262.78108 265.57139 270.5899 275.60844 280.59687 285.05329 290.07185 297.56953 300.35984 305.37837 309.8348 313.73924 320.67485 323.46513 330.6115 338.1092 342.0136 346.47007 349.26039 352.05067 354.84098 359.8595 364.87806 371.26164 375.71806 379.0604 385.996 388.78633 393.80485 398.82337 401.61369 406.07014 410.52659 413.3169 416.10719 423.6049 426.9472 431.40367 434.746 439.20246 442.54478 445.88713 450.34358 457.84126 460.63157 468.12925 472.5857">classi&#xfb01;cationoranimageforgeneration,andthesetwosettingsaretypicallyreferredtoas</tspan></text>
<text xml:space="preserve" transform="matrix(.99949988 0 -0 1.0005005 -99.14646 656.4462)" font-size="9.957617" font-family="NimbusRomNo9L" font-style="italic"><tspan y="-451.68998" x="115.28566 120.26447 123.032688 126.9062 131.32738 135.2009 137.96912 145.15851 147.92673 152.90554 157.88436 160.65256 163.42078 167.84197">discriminative</tspan></text>
<text xml:space="preserve" transform="matrix(.99949988 0 -0 1.0005005 -99.14646 656.4462)" font-size="9.957617" font-family="NimbusRomNo9L"><tspan y="-451.68998" x="174.75643 179.17761 184.15642">and</tspan></text>
<text xml:space="preserve" transform="matrix(.99949988 0 -0 1.0005005 -99.14646 656.4462)" font-size="9.957617" font-family="NimbusRomNo9L" font-style="italic"><tspan y="-451.68998" x="191.62886 196.50809 200.92928 205.90808 210.32927 214.05342 219.03223 221.80045 224.56865 228.98984">generative</tspan></text>
<text xml:space="preserve" transform="matrix(.99949988 0 -0 1.0005005 -99.14646 656.4462)" font-size="9.957617" font-family="NimbusRomNo9L"><tspan y="-451.68998" x="235.90399 241.44043 248.08216 253.06096 259.14506 264.12388 271.0444 276.58085 279.89677 283.77027 289.0279 291.79615 296.21733 301.19615 305.6173 311.43257 315.85377 320.27494 327.74317 332.16435 334.9326 338.8061 346.27433 351.2531 358.17369 363.71009 368.53953 372.96073 380.42893 383.19718 390.67533 394.54887 399.52766 407.2747 414.1853 419.1641 423.5853 426.35353 433.27406 437.14759 441.56877 444.88468 449.86347 452.62178 457.60057 465.07875 469.4999 475.86286">PC.The&#xfb01;rstlayercanalsobe&#xfb01;xedtosomedataservingasa</tspan></text>
<text xml:space="preserve" transform="matrix(.9919677 0 -0 1.0080973 -99.14646 656.4462)" font-size="9.882578" font-family="NimbusRomNo9L"><tspan y="-437.46473" x="114.82532 119.21319 124.15447 127.44537 130.19274 135.13402 138.42491 142.81278">&#x201c;prior&#x201d;,</tspan></text>
<text xml:space="preserve" transform="matrix(1 0 -0 1 -99.14646 656.4462)" font-size="9.9626" font-family="CMBX10" font-weight="bold"><tspan y="-441.007" x="146.6">z</tspan></text>
<text xml:space="preserve" transform="matrix(1 0 -0 1 -99.14646 656.4462)" font-size="6.9738" font-family="CMR7"><tspan y="-439.513" x="151.692">0</tspan></text>
<text xml:space="preserve" transform="matrix(1 0 -0 1 -99.14646 656.4462)" font-size="9.9626" font-family="CMR10"><tspan y="-441.353" x="158.929">:</tspan></text>
<text xml:space="preserve" transform="matrix(1 0 -0 1 -99.14646 656.4462)" font-size="9.9626" font-family="CMR10"><tspan y="-441.007" x="161.032">=</tspan></text>
<text xml:space="preserve" transform="matrix(1 0 -0 1 -99.14646 656.4462)" font-size="9.9626" font-family="CMBX10" font-weight="bold"><tspan y="-441.007" x="171.548">x</tspan></text>
<text xml:space="preserve" transform="matrix(.9919677 0 -0 1.0080973 -99.14646 656.4462)" font-size="9.882578" font-family="NimbusRomNo9L"><tspan y="-437.46473" x="179.03307 184.004 187.84833 192.78961 197.17748 204.62894 209.01679 215.3614 219.74927 227.19084 229.93822 237.62686 242.01473 246.95601 253.84416 256.59153 264.0331 270.92127 274.7656 279.70689 284.6482 289.03608 292.32698 297.26826 300.01564 303.85993 308.2478 315.6993 318.44667 322.83454 326.67884 331.62016 337.19395 340.48484 347.9363 352.87763 357.81895 361.66325 366.60456 371.54588 375.93376 379.22465 384.16593 386.91328 390.7576 395.14549 402.58708 405.3344 408.6253 413.01319 415.76054 420.70185 423.4492 428.39048 433.3318 438.3027 441.05006 445.99137 448.7387 455.0833 457.83067 462.21855 467.15986 471.54774 477.33894 480.08628">,suchasanimageinasupervisedtask.Inunsupervisedtraining,thislayeris</tspan></text>
<text xml:space="preserve" transform="matrix(1 0 -0 1 -99.14646 656.4462)" font-size="9.9626" font-family="NimbusRomNo9L"><tspan y="-430.098" x="115.228 117.9976 122.42099 125.73853 130.99878 134.31633 137.63388 142.05728 148.97133 151.74094 159.21288 163.9451 168.3685 171.68605 179.15799 181.9276 184.6972 189.57888 196.49292 200.91632 205.74817 213.22011 218.2014 220.97101 225.9523 230.3757 236.1839 241.16519 243.9348 248.91609 253.89739 258.32078 265.79273 268.56233 272.98573 277.967 282.3904 285.16">leftfreetovarylikeanyotherhiddenlayer.</tspan></text>
<text xml:space="preserve" transform="matrix(.98994949 0 -0 1.0101526 -99.14646 656.4462)" font-size="9.862471" font-family="NimbusRomNo9L"><tspan y="-404.17658" x="116.085727 122.111698 127.04293 133.92694 138.30588 143.2371 147.61606 150.72274 155.65396 163.10013 166.38433 172.4103 177.34152">Theenergy(Eq.</tspan></text>
<text fill="#ff0000" xml:space="preserve" transform="matrix(.98994949 0 -0 1.0101526 -99.14646 656.4462)" font-size="9.862471" font-family="NimbusRomNo9L"><tspan y="-404.17658" x="182.92369">1</tspan></text>
<text xml:space="preserve" transform="matrix(.98994949 0 -0 1.0101526 -99.14646 656.4462)" font-size="9.862471" font-family="NimbusRomNo9L"><tspan y="-404.17658" x="187.85495 193.64421 196.38599 202.72756 205.46933 210.40056 214.7795 222.22566 229.89867 232.64044 237.57167 240.31345 247.98645 250.72823 254.56473 258.94364 266.37998 269.1217 276.5679 283.4519 288.38316 291.1249 294.40913 297.15086 301.28324 306.0567 310.43565 315.69233 318.86805 323.24699 327.08348 332.0147 334.75648 339.6877 344.61897 349.59953 355.08308 358.36726 362.20378 367.4506 373.92036 376.38597 379.11787 381.58348 384.32524 389.90739 392.64915 397.58039 404.4644 408.84333 413.22227 415.96403 418.45924 423.39048 426.13224 428.874 431.61576 435.9947 442.33625 445.62046 448.3622 453.29347 456.57765 460.9566 464.24079 468.61973 473.55097 477.92994 482.30888">)isthenminimisedinabi-levelfashion,&#xfb01;rstw.r.t.theactivities(inference)</tspan></text>
<text xml:space="preserve" transform="matrix(1 0 -0 1 -99.14646 656.4462)" font-size="9.9626" font-family="NimbusRomNo9L"><tspan y="-397.371" x="115.228 119.65139 124.63269 132.10463 134.87424 139.85553 144.27893 151.75087 158.2963 160.78694 163.55655 166.0472 168.8168 174.39586 177.16547 182.14676 189.0608 196.2538 200.6772 203.44681 208.4281 213.4094 216.179 222.5451 225.86266 228.63227 233.05567 237.47907 240.79662 245.77791 248.54752 253.52881 258.5101">andthenw.r.t.theweights(learning)</tspan></text>
<path transform="matrix(1,0,0,-1,54.065546,256.42424)" d="M4.6963-17.00826C4.6963-14.41452 2.59372-12.31194 0-12.31194-2.59372-12.31194-4.6963-14.41452-4.6963-17.00826-4.6963-19.60199-2.59372-21.70457 0-21.70457 2.59372-21.70457 4.6963-19.60199 4.6963-17.00826ZM0-17.00826" fill="#ffffff"/>
<path transform="matrix(1,0,0,-1,54.065546,256.42424)" stroke-width=".79701" stroke-linecap="butt" stroke-miterlimit="10" stroke-linejoin="miter" fill="none" stroke="#000000" d="M4.6963-17.00826C4.6963-14.41452 2.59372-12.31194 0-12.31194-2.59372-12.31194-4.6963-14.41452-4.6963-17.00826-4.6963-19.60199-2.59372-21.70457 0-21.70457 2.59372-21.70457 4.6963-19.60199 4.6963-17.00826ZM0-17.00826"/>
<path transform="matrix(1,0,0,-1,54.065546,256.42424)" d="M-12.31194-17.00826C-12.31194-14.41452-14.41452-12.31194-17.00826-12.31194-19.60199-12.31194-21.70457-14.41452-21.70457-17.00826-21.70457-19.60199-19.60199-21.70457-17.00826-21.70457-14.41452-21.70457-12.31194-19.60199-12.31194-17.00826ZM-17.00826-17.00826" fill="#ffffff"/>
<path transform="matrix(1,0,0,-1,54.065546,256.42424)" stroke-width=".79701" stroke-linecap="butt" stroke-miterlimit="10" stroke-linejoin="miter" fill="none" stroke="#000000" d="M-12.31194-17.00826C-12.31194-14.41452-14.41452-12.31194-17.00826-12.31194-19.60199-12.31194-21.70457-14.41452-21.70457-17.00826-21.70457-19.60199-19.60199-21.70457-17.00826-21.70457-14.41452-21.70457-12.31194-19.60199-12.31194-17.00826ZM-17.00826-17.00826"/>
<text xml:space="preserve" transform="matrix(1 0 -0 1 -99.14646 656.4462)" font-size="9.9626" font-family="CMBX10" font-weight="bold"><tspan y="-380.8" x="121.543">x</tspan></text>
<path transform="matrix(1,0,0,-1,54.065546,256.42424)" d="M13.20044-34.01651C13.20044-31.42279 11.09785-29.3202 8.50412-29.3202 5.91039-29.3202 3.8078-31.42279 3.8078-34.01651 3.8078-36.61024 5.91039-38.71283 8.50412-38.71283 11.09785-38.71283 13.20044-36.61024 13.20044-34.01651ZM8.50412-34.01651" fill="#ffe5e5" fill-opacity="0"/>
<path transform="matrix(1,0,0,-1,54.065546,256.42424)" stroke-width=".79701" stroke-linecap="butt" stroke-miterlimit="10" stroke-linejoin="miter" fill="none" stroke="#ff7f7f" stroke-opacity="0" d="M13.20044-34.01651C13.20044-31.42279 11.09785-29.3202 8.50412-29.3202 5.91039-29.3202 3.8078-31.42279 3.8078-34.01651 3.8078-36.61024 5.91039-38.71283 8.50412-38.71283 11.09785-38.71283 13.20044-36.61024 13.20044-34.01651ZM8.50412-34.01651"/>
<path transform="matrix(1,0,0,-1,54.065546,256.42424)" stroke-width=".3985" stroke-linecap="butt" stroke-miterlimit="10" stroke-linejoin="miter" fill="none" stroke="#000000" d="M2.27826-21.56487 6.02092-29.05005"/>
<path transform="matrix(.4472,.89438,.89438,-.4472,60.086435,285.47425)" stroke-width=".31879" stroke-linecap="round" stroke-linejoin="round" fill="none" stroke="#000000" d="M-1.19551 1.59401C-1.09587 .99626 0 .09961 .29886 0 0-.09961-1.09587-.99626-1.19551-1.59401"/>
<path transform="matrix(1,0,0,-1,54.065546,256.42424)" stroke-width=".3985" stroke-linecap="butt" stroke-miterlimit="10" stroke-linejoin="miter" fill="none" stroke="#000000" d="M-12.76929-19.8342 3.88387-30.93639"/>
<path transform="matrix(.83202,.55467,.55467,-.83202,57.949335,287.36064)" stroke-width=".31879" stroke-linecap="round" stroke-linejoin="round" fill="none" stroke="#000000" d="M-1.19551 1.59401C-1.09587 .99626 0 .09961 .29886 0 0-.09961-1.09587-.99626-1.19551-1.59401"/>
<path transform="matrix(1,0,0,-1,54.065546,256.42424)" d="M-3.8078-34.01651C-3.8078-31.42279-5.91039-29.3202-8.50412-29.3202-11.09785-29.3202-13.20044-31.42279-13.20044-34.01651-13.20044-36.61024-11.09785-38.71283-8.50412-38.71283-5.91039-38.71283-3.8078-36.61024-3.8078-34.01651ZM-8.50412-34.01651" fill="#ffe5e5"/>
<path transform="matrix(1,0,0,-1,54.065546,256.42424)" stroke-width=".79701" stroke-linecap="butt" stroke-miterlimit="10" stroke-linejoin="miter" fill="none" stroke="#ff7f7f" d="M-3.8078-34.01651C-3.8078-31.42279-5.91039-29.3202-8.50412-29.3202-11.09785-29.3202-13.20044-31.42279-13.20044-34.01651-13.20044-36.61024-11.09785-38.71283-8.50412-38.71283-5.91039-38.71283-3.8078-36.61024-3.8078-34.01651ZM-8.50412-34.01651"/>
<path transform="matrix(1,0,0,-1,54.065546,256.42424)" stroke-width=".3985" stroke-linecap="butt" stroke-miterlimit="10" stroke-linejoin="miter" fill="none" stroke="#000000" d="M-2.27826-21.56487-6.02092-29.05005"/>
<path transform="matrix(-.4472,.89438,.89438,.4472,48.04464,285.47425)" stroke-width=".31879" stroke-linecap="round" stroke-linejoin="round" fill="none" stroke="#000000" d="M-1.19551 1.59401C-1.09587 .99626 0 .09961 .29886 0 0-.09961-1.09587-.99626-1.19551-1.59401"/>
<path transform="matrix(1,0,0,-1,54.065546,256.42424)" stroke-width=".3985" stroke-linecap="butt" stroke-miterlimit="10" stroke-linejoin="miter" fill="none" stroke="#000000" d="M-14.73-21.56487-10.98732-29.05005"/>
<path transform="matrix(.4472,.89438,.89438,-.4472,43.07824,285.47425)" stroke-width=".31879" stroke-linecap="round" stroke-linejoin="round" fill="none" stroke="#000000" d="M-1.19551 1.59401C-1.09587 .99626 0 .09961 .29886 0 0-.09961-1.09587-.99626-1.19551-1.59401"/>
<g>
<path transform="matrix(1,0,0,-1,54.065546,256.42424)" d="M-20.81606-34.01651C-20.81606-31.42279-22.91864-29.3202-25.51237-29.3202-28.10611-29.3202-30.2087-31.42279-30.2087-34.01651-30.2087-36.61024-28.10611-38.71283-25.51237-38.71283-22.91864-38.71283-20.81606-36.61024-20.81606-34.01651ZM-25.51237-34.01651" fill="#ffe5e5" fill-opacity=".2104"/>
<path transform="matrix(1,0,0,-1,54.065546,256.42424)" stroke-width=".79701" stroke-linecap="butt" stroke-miterlimit="10" stroke-linejoin="miter" fill="none" stroke="#ff7f7f" stroke-opacity=".2104" d="M-20.81606-34.01651C-20.81606-31.42279-22.91864-29.3202-25.51237-29.3202-28.10611-29.3202-30.2087-31.42279-30.2087-34.01651-30.2087-36.61024-28.10611-38.71283-25.51237-38.71283-22.91864-38.71283-20.81606-36.61024-20.81606-34.01651ZM-25.51237-34.01651"/>
</g>
<path transform="matrix(1,0,0,-1,54.065546,256.42424)" stroke-width=".3985" stroke-linecap="butt" stroke-miterlimit="10" stroke-linejoin="miter" fill="none" stroke="#000000" d="M-4.23895-19.8342-20.89214-30.93639"/>
<path transform="matrix(-.83202,.55467,.55467,.83202,33.17344,287.36064)" stroke-width=".31879" stroke-linecap="round" stroke-linejoin="round" fill="none" stroke="#000000" d="M-1.19551 1.59401C-1.09587 .99626 0 .09961 .29886 0 0-.09961-1.09587-.99626-1.19551-1.59401"/>
<path transform="matrix(1,0,0,-1,54.065546,256.42424)" stroke-width=".3985" stroke-linecap="butt" stroke-miterlimit="10" stroke-linejoin="miter" fill="none" stroke="#000000" d="M-19.28651-21.56487-23.02917-29.05005"/>
<path transform="matrix(-.4472,.89438,.89438,.4472,31.036339,285.47425)" stroke-width=".31879" stroke-linecap="round" stroke-linejoin="round" fill="none" stroke="#000000" d="M-1.19551 1.59401C-1.09587 .99626 0 .09961 .29886 0 0-.09961-1.09587-.99626-1.19551-1.59401"/>
<g>
<path transform="matrix(1,0,0,-1,54.065546,256.42424)" d="M13.20044-51.02478C13.20044-48.43105 11.09785-46.32846 8.50412-46.32846 5.91039-46.32846 3.8078-48.43105 3.8078-51.02478 3.8078-53.61852 5.91039-55.7211 8.50412-55.7211 11.09785-55.7211 13.20044-53.61852 13.20044-51.02478ZM8.50412-51.02478" fill="#ffe5e5" fill-opacity=".6711"/>
<path transform="matrix(1,0,0,-1,54.065546,256.42424)" stroke-width=".79701" stroke-linecap="butt" stroke-miterlimit="10" stroke-linejoin="miter" fill="none" stroke="#ff7f7f" stroke-opacity=".6711" d="M13.20044-51.02478C13.20044-48.43105 11.09785-46.32846 8.50412-46.32846 5.91039-46.32846 3.8078-48.43105 3.8078-51.02478 3.8078-53.61852 5.91039-55.7211 8.50412-55.7211 11.09785-55.7211 13.20044-53.61852 13.20044-51.02478ZM8.50412-51.02478"/>
</g>
<path transform="matrix(1,0,0,-1,54.065546,256.42424)" stroke-width=".3985" stroke-linecap="butt" stroke-miterlimit="10" stroke-linejoin="miter" fill="none" stroke="#000000" d="M8.50412-39.11134V-45.47168"/>
<path transform="matrix(0,1,1,0,62.569635,301.89595)" stroke-width=".31879" stroke-linecap="round" stroke-linejoin="round" fill="none" stroke="#000000" d="M-1.19551 1.59401C-1.09587 .99626 0 .09961 .29886 0 0-.09961-1.09587-.99626-1.19551-1.59401"/>
<path transform="matrix(1,0,0,-1,54.065546,256.42424)" stroke-width=".3985" stroke-linecap="butt" stroke-miterlimit="10" stroke-linejoin="miter" fill="none" stroke="#000000" d="M-4.90154-37.6191 4.57748-47.09816"/>
<path transform="matrix(.7071,.7071,.7071,-.7071,58.643045,303.52244)" stroke-width=".31879" stroke-linecap="round" stroke-linejoin="round" fill="none" stroke="#000000" d="M-1.19551 1.59401C-1.09587 .99626 0 .09961 .29886 0 0-.09961-1.09587-.99626-1.19551-1.59401"/>
<path transform="matrix(1,0,0,-1,54.065546,256.42424)" stroke-width=".3985" stroke-linecap="butt" stroke-miterlimit="10" stroke-linejoin="miter" fill="none" stroke="#000000" d="M-20.95576-36.29477 3.53757-48.54143"/>
<path transform="matrix(.89436,.44717,.44717,-.89436,57.603036,304.96565)" stroke-width=".31879" stroke-linecap="round" stroke-linejoin="round" fill="none" stroke="#000000" d="M-1.19551 1.59401C-1.09587 .99626 0 .09961 .29886 0 0-.09961-1.09587-.99626-1.19551-1.59401"/>
<g>
<path transform="matrix(1,0,0,-1,54.065546,256.42424)" d="M-3.8078-51.02478C-3.8078-48.43105-5.91039-46.32846-8.50412-46.32846-11.09785-46.32846-13.20044-48.43105-13.20044-51.02478-13.20044-53.61852-11.09785-55.7211-8.50412-55.7211-5.91039-55.7211-3.8078-53.61852-3.8078-51.02478ZM-8.50412-51.02478" fill="#ffe5e5" fill-opacity=".6153"/>
<path transform="matrix(1,0,0,-1,54.065546,256.42424)" stroke-width=".79701" stroke-linecap="butt" stroke-miterlimit="10" stroke-linejoin="miter" fill="none" stroke="#ff7f7f" stroke-opacity=".6153" d="M-3.8078-51.02478C-3.8078-48.43105-5.91039-46.32846-8.50412-46.32846-11.09785-46.32846-13.20044-48.43105-13.20044-51.02478-13.20044-53.61852-11.09785-55.7211-8.50412-55.7211-5.91039-55.7211-3.8078-53.61852-3.8078-51.02478ZM-8.50412-51.02478"/>
</g>
<path transform="matrix(1,0,0,-1,54.065546,256.42424)" stroke-width=".3985" stroke-linecap="butt" stroke-miterlimit="10" stroke-linejoin="miter" fill="none" stroke="#000000" d="M4.90154-37.6191-4.57748-47.09816"/>
<path transform="matrix(-.7071,.7071,.7071,.7071,49.488046,303.52244)" stroke-width=".31879" stroke-linecap="round" stroke-linejoin="round" fill="none" stroke="#000000" d="M-1.19551 1.59401C-1.09587 .99626 0 .09961 .29886 0 0-.09961-1.09587-.99626-1.19551-1.59401"/>
<path transform="matrix(1,0,0,-1,54.065546,256.42424)" stroke-width=".3985" stroke-linecap="butt" stroke-miterlimit="10" stroke-linejoin="miter" fill="none" stroke="#000000" d="M-8.50412-39.11134V-45.47168"/>
<path transform="matrix(0,1,1,0,45.56144,301.89595)" stroke-width=".31879" stroke-linecap="round" stroke-linejoin="round" fill="none" stroke="#000000" d="M-1.19551 1.59401C-1.09587 .99626 0 .09961 .29886 0 0-.09961-1.09587-.99626-1.19551-1.59401"/>
<path transform="matrix(1,0,0,-1,54.065546,256.42424)" stroke-width=".3985" stroke-linecap="butt" stroke-miterlimit="10" stroke-linejoin="miter" fill="none" stroke="#000000" d="M-21.9098-37.6191-12.43074-47.09816"/>
<path transform="matrix(.7071,.7071,.7071,-.7071,41.634836,303.52244)" stroke-width=".31879" stroke-linecap="round" stroke-linejoin="round" fill="none" stroke="#000000" d="M-1.19551 1.59401C-1.09587 .99626 0 .09961 .29886 0 0-.09961-1.09587-.99626-1.19551-1.59401"/>
<path transform="matrix(1,0,0,-1,54.065546,256.42424)" d="M-20.81606-51.02478C-20.81606-48.43105-22.91864-46.32846-25.51237-46.32846-28.10611-46.32846-30.2087-48.43105-30.2087-51.02478-30.2087-53.61852-28.10611-55.7211-25.51237-55.7211-22.91864-55.7211-20.81606-53.61852-20.81606-51.02478ZM-25.51237-51.02478" fill="#ffe5e5" fill-opacity="0"/>
<path transform="matrix(1,0,0,-1,54.065546,256.42424)" stroke-width=".79701" stroke-linecap="butt" stroke-miterlimit="10" stroke-linejoin="miter" fill="none" stroke="#ff7f7f" stroke-opacity="0" d="M-20.81606-51.02478C-20.81606-48.43105-22.91864-46.32846-25.51237-46.32846-28.10611-46.32846-30.2087-48.43105-30.2087-51.02478-30.2087-53.61852-28.10611-55.7211-25.51237-55.7211-22.91864-55.7211-20.81606-53.61852-20.81606-51.02478ZM-25.51237-51.02478"/>
<path transform="matrix(1,0,0,-1,54.065546,256.42424)" stroke-width=".3985" stroke-linecap="butt" stroke-miterlimit="10" stroke-linejoin="miter" fill="none" stroke="#000000" d="M3.94751-36.29477-20.54584-48.54143"/>
<path transform="matrix(-.89436,.44717,.44717,.89436,33.519739,304.96565)" stroke-width=".31879" stroke-linecap="round" stroke-linejoin="round" fill="none" stroke="#000000" d="M-1.19551 1.59401C-1.09587 .99626 0 .09961 .29886 0 0-.09961-1.09587-.99626-1.19551-1.59401"/>
<path transform="matrix(1,0,0,-1,54.065546,256.42424)" stroke-width=".3985" stroke-linecap="butt" stroke-miterlimit="10" stroke-linejoin="miter" fill="none" stroke="#000000" d="M-12.10669-37.6191-21.58575-47.09816"/>
<path transform="matrix(-.7071,.7071,.7071,.7071,32.479745,303.52244)" stroke-width=".31879" stroke-linecap="round" stroke-linejoin="round" fill="none" stroke="#000000" d="M-1.19551 1.59401C-1.09587 .99626 0 .09961 .29886 0 0-.09961-1.09587-.99626-1.19551-1.59401"/>
<path transform="matrix(1,0,0,-1,54.065546,256.42424)" stroke-width=".3985" stroke-linecap="butt" stroke-miterlimit="10" stroke-linejoin="miter" fill="none" stroke="#000000" d="M-25.51237-39.11134V-45.47168"/>
<path transform="matrix(0,1,1,0,28.553139,301.89595)" stroke-width=".31879" stroke-linecap="round" stroke-linejoin="round" fill="none" stroke="#000000" d="M-1.19551 1.59401C-1.09587 .99626 0 .09961 .29886 0 0-.09961-1.09587-.99626-1.19551-1.59401"/>
<path transform="matrix(1,0,0,-1,54.065546,256.42424)" d="M4.6963-68.03304C4.6963-65.43932 2.59372-63.33673 0-63.33673-2.59372-63.33673-4.6963-65.43932-4.6963-68.03304-4.6963-70.62677-2.59372-72.72935 0-72.72935 2.59372-72.72935 4.6963-70.62677 4.6963-68.03304ZM0-68.03304" fill="#ffffff"/>
<path transform="matrix(1,0,0,-1,54.065546,256.42424)" stroke-width=".79701" stroke-linecap="butt" stroke-miterlimit="10" stroke-linejoin="miter" fill="none" stroke="#000000" d="M4.6963-68.03304C4.6963-65.43932 2.59372-63.33673 0-63.33673-2.59372-63.33673-4.6963-65.43932-4.6963-68.03304-4.6963-70.62677-2.59372-72.72935 0-72.72935 2.59372-72.72935 4.6963-70.62677 4.6963-68.03304ZM0-68.03304"/>
<path transform="matrix(1,0,0,-1,54.065546,256.42424)" stroke-width=".3985" stroke-linecap="butt" stroke-miterlimit="10" stroke-linejoin="miter" fill="none" stroke="#000000" d="M6.22586-55.58139 2.48318-63.06657"/>
<path transform="matrix(-.4472,.89438,.89438,.4472,56.548746,319.4908)" stroke-width=".31879" stroke-linecap="round" stroke-linejoin="round" fill="none" stroke="#000000" d="M-1.19551 1.59401C-1.09587 .99626 0 .09961 .29886 0 0-.09961-1.09587-.99626-1.19551-1.59401"/>
<path transform="matrix(1,0,0,-1,54.065546,256.42424)" stroke-width=".3985" stroke-linecap="butt" stroke-miterlimit="10" stroke-linejoin="miter" fill="none" stroke="#000000" d="M-6.22586-55.58139-2.48318-63.06657"/>
<path transform="matrix(.4472,.89438,.89438,-.4472,51.582345,319.4908)" stroke-width=".31879" stroke-linecap="round" stroke-linejoin="round" fill="none" stroke="#000000" d="M-1.19551 1.59401C-1.09587 .99626 0 .09961 .29886 0 0-.09961-1.09587-.99626-1.19551-1.59401"/>
<path transform="matrix(1,0,0,-1,54.065546,256.42424)" stroke-width=".3985" stroke-linecap="butt" stroke-miterlimit="10" stroke-linejoin="miter" fill="none" stroke="#000000" d="M-21.2734-53.85072-4.62024-64.95291"/>
<path transform="matrix(.83202,.55467,.55467,-.83202,49.445245,321.37715)" stroke-width=".31879" stroke-linecap="round" stroke-linejoin="round" fill="none" stroke="#000000" d="M-1.19551 1.59401C-1.09587 .99626 0 .09961 .29886 0 0-.09961-1.09587-.99626-1.19551-1.59401"/>
<path transform="matrix(1,0,0,-1,54.065546,256.42424)" d="M-12.31194-68.03304C-12.31194-65.43932-14.41452-63.33673-17.00826-63.33673-19.60199-63.33673-21.70457-65.43932-21.70457-68.03304-21.70457-70.62677-19.60199-72.72935-17.00826-72.72935-14.41452-72.72935-12.31194-70.62677-12.31194-68.03304ZM-17.00826-68.03304" fill="#ffffff"/>
<path transform="matrix(1,0,0,-1,54.065546,256.42424)" stroke-width=".79701" stroke-linecap="butt" stroke-miterlimit="10" stroke-linejoin="miter" fill="none" stroke="#000000" d="M-12.31194-68.03304C-12.31194-65.43932-14.41452-63.33673-17.00826-63.33673-19.60199-63.33673-21.70457-65.43932-21.70457-68.03304-21.70457-70.62677-19.60199-72.72935-17.00826-72.72935-14.41452-72.72935-12.31194-70.62677-12.31194-68.03304ZM-17.00826-68.03304"/>
<text xml:space="preserve" transform="matrix(1 0 -0 1 -99.14646 656.4462)" font-size="9.9626" font-family="CMBX10" font-weight="bold"><tspan y="-330.745" x="121.384">y</tspan></text>
<path transform="matrix(1,0,0,-1,54.065546,256.42424)" stroke-width=".3985" stroke-linecap="butt" stroke-miterlimit="10" stroke-linejoin="miter" fill="none" stroke="#000000" d="M4.26515-53.85072-12.38802-64.95291"/>
<path transform="matrix(-.83202,.55467,.55467,.83202,41.677545,321.37715)" stroke-width=".31879" stroke-linecap="round" stroke-linejoin="round" fill="none" stroke="#000000" d="M-1.19551 1.59401C-1.09587 .99626 0 .09961 .29886 0 0-.09961-1.09587-.99626-1.19551-1.59401"/>
<path transform="matrix(1,0,0,-1,54.065546,256.42424)" stroke-width=".3985" stroke-linecap="butt" stroke-miterlimit="10" stroke-linejoin="miter" fill="none" stroke="#000000" d="M-10.78238-55.58139-14.52505-63.06657"/>
<path transform="matrix(-.4472,.89438,.89438,.4472,39.540445,319.4908)" stroke-width=".31879" stroke-linecap="round" stroke-linejoin="round" fill="none" stroke="#000000" d="M-1.19551 1.59401C-1.09587 .99626 0 .09961 .29886 0 0-.09961-1.09587-.99626-1.19551-1.59401"/>
<path transform="matrix(1,0,0,-1,54.065546,256.42424)" stroke-width=".3985" stroke-linecap="butt" stroke-miterlimit="10" stroke-linejoin="miter" fill="none" stroke="#000000" d="M-23.23412-55.58139-19.49146-63.06657"/>
<path transform="matrix(.4472,.89438,.89438,-.4472,34.574045,319.4908)" stroke-width=".31879" stroke-linecap="round" stroke-linejoin="round" fill="none" stroke="#000000" d="M-1.19551 1.59401C-1.09587 .99626 0 .09961 .29886 0 0-.09961-1.09587-.99626-1.19551-1.59401"/>
<text xml:space="preserve" transform="matrix(1 0 -0 1 -99.14646 656.4462)" font-size="9.9626" font-family="NimbusRomNo9L" font-style="italic"><tspan y="-357.959" x="181.502 184.81955 189.80084 192.57045 196.99385 200.86931">Infer:</tspan></text>
<text xml:space="preserve" transform="matrix(1 0 -0 1 -99.14646 656.4462)" font-size="9.9626" font-family="CMR10"><tspan y="-357.959" x="208.936 213.9173 217.81964 224.59421 232.906 235.67362">argmin</tspan></text>
<text fill="#ff7f7f" xml:space="preserve" transform="matrix(1 0 -0 1 -99.14646 656.4462)" font-size="9.9626" font-family="CMBX10" font-weight="bold"><tspan y="-349.934" x="220.607">z</tspan></text>
<text fill="#ff7f7f" xml:space="preserve" transform="matrix(1 0 -0 1 -99.14646 656.4462)" font-size="6.9738" font-family="CMMI7" font-style="italic"><tspan y="-348.44" x="225.699">`</tspan></text>
<text xml:space="preserve" transform="matrix(1 0 -0 1 -99.14646 656.4462)" font-size="9.9626" font-family="CMSY10" font-style="italic"><tspan y="-357.959" x="242.864">F</tspan></text>
<text xml:space="preserve" transform="matrix(1 0 -0 1 -99.14646 656.4462)" font-size="9.9626" font-family="NimbusRomNo9L"><tspan y="-354.029" x="278.272 281.58955 286.57084">(2)</tspan></text>
<path transform="matrix(1,0,0,-1,231.33155,256.90824)" d="M4.6963-17.00826C4.6963-14.41452 2.59372-12.31194 0-12.31194-2.59372-12.31194-4.6963-14.41452-4.6963-17.00826-4.6963-19.60199-2.59372-21.70457 0-21.70457 2.59372-21.70457 4.6963-19.60199 4.6963-17.00826ZM0-17.00826" fill="#ffffff"/>
<path transform="matrix(1,0,0,-1,231.33155,256.90824)" stroke-width=".79701" stroke-linecap="butt" stroke-miterlimit="10" stroke-linejoin="miter" fill="none" stroke="#000000" d="M4.6963-17.00826C4.6963-14.41452 2.59372-12.31194 0-12.31194-2.59372-12.31194-4.6963-14.41452-4.6963-17.00826-4.6963-19.60199-2.59372-21.70457 0-21.70457 2.59372-21.70457 4.6963-19.60199 4.6963-17.00826ZM0-17.00826"/>
<path transform="matrix(1,0,0,-1,231.33155,256.90824)" d="M-12.31194-17.00826C-12.31194-14.41452-14.41452-12.31194-17.00826-12.31194-19.60199-12.31194-21.70457-14.41452-21.70457-17.00826-21.70457-19.60199-19.60199-21.70457-17.00826-21.70457-14.41452-21.70457-12.31194-19.60199-12.31194-17.00826ZM-17.00826-17.00826" fill="#ffffff"/>
<path transform="matrix(1,0,0,-1,231.33155,256.90824)" stroke-width=".79701" stroke-linecap="butt" stroke-miterlimit="10" stroke-linejoin="miter" fill="none" stroke="#000000" d="M-12.31194-17.00826C-12.31194-14.41452-14.41452-12.31194-17.00826-12.31194-19.60199-12.31194-21.70457-14.41452-21.70457-17.00826-21.70457-19.60199-19.60199-21.70457-17.00826-21.70457-14.41452-21.70457-12.31194-19.60199-12.31194-17.00826ZM-17.00826-17.00826"/>
<path transform="matrix(1,0,0,-1,231.33155,256.90824)" d="M13.20044-34.01651C13.20044-31.42279 11.09785-29.3202 8.50412-29.3202 5.91039-29.3202 3.8078-31.42279 3.8078-34.01651 3.8078-36.61024 5.91039-38.71283 8.50412-38.71283 11.09785-38.71283 13.20044-36.61024 13.20044-34.01651ZM8.50412-34.01651" fill="#ffffff"/>
<path transform="matrix(1,0,0,-1,231.33155,256.90824)" stroke-width=".79701" stroke-linecap="butt" stroke-miterlimit="10" stroke-linejoin="miter" fill="none" stroke="#000000" d="M13.20044-34.01651C13.20044-31.42279 11.09785-29.3202 8.50412-29.3202 5.91039-29.3202 3.8078-31.42279 3.8078-34.01651 3.8078-36.61024 5.91039-38.71283 8.50412-38.71283 11.09785-38.71283 13.20044-36.61024 13.20044-34.01651ZM8.50412-34.01651"/>
<path transform="matrix(1,0,0,-1,231.33155,256.90824)" stroke-width=".62053" stroke-linecap="butt" stroke-miterlimit="10" stroke-linejoin="miter" fill="none" stroke="#7f7fff" d="M2.27826-21.56487 5.95886-28.92593"/>
<path transform="matrix(.4472,.89438,.89438,-.4472,237.29044,285.83415)" stroke-width=".49641" stroke-linecap="round" stroke-linejoin="round" fill="none" stroke="#7f7fff" d="M-1.39531 1.86041C-1.27902 1.16275 0 .11626 .34882 0 0-.11626-1.27902-1.16275-1.39531-1.86041"/>
<path transform="matrix(1,0,0,-1,231.33155,256.90824)" stroke-width=".50157" stroke-linecap="butt" stroke-miterlimit="10" stroke-linejoin="miter" fill="none" stroke="#7f7fff" d="M-12.76929-19.8342 3.83025-30.90067"/>
<path transform="matrix(.83202,.55467,.55467,-.83202,235.16175,287.80885)" stroke-width=".40125" stroke-linecap="round" stroke-linejoin="round" fill="none" stroke="#7f7fff" d="M-1.28827 1.7177C-1.18091 1.07356 0 .10735 .32207 0 0-.10735-1.18091-1.07356-1.28827-1.7177"/>
<path transform="matrix(1,0,0,-1,231.33155,256.90824)" d="M-3.8078-34.01651C-3.8078-31.42279-5.91039-29.3202-8.50412-29.3202-11.09785-29.3202-13.20044-31.42279-13.20044-34.01651-13.20044-36.61024-11.09785-38.71283-8.50412-38.71283-5.91039-38.71283-3.8078-36.61024-3.8078-34.01651ZM-8.50412-34.01651" fill="#ffffff"/>
<path transform="matrix(1,0,0,-1,231.33155,256.90824)" stroke-width=".79701" stroke-linecap="butt" stroke-miterlimit="10" stroke-linejoin="miter" fill="none" stroke="#000000" d="M-3.8078-34.01651C-3.8078-31.42279-5.91039-29.3202-8.50412-29.3202-11.09785-29.3202-13.20044-31.42279-13.20044-34.01651-13.20044-36.61024-11.09785-38.71283-8.50412-38.71283-5.91039-38.71283-3.8078-36.61024-3.8078-34.01651ZM-8.50412-34.01651"/>
<path transform="matrix(1,0,0,-1,231.33155,256.90824)" stroke-width=".29887" stroke-linecap="butt" stroke-miterlimit="10" stroke-linejoin="miter" fill="none" stroke="#7f7fff" d="M-2.27826-21.56487-6.04875-29.10571"/>
<path transform="matrix(-.4472,.89438,.89438,.4472,225.28284,286.01393)" stroke-width=".23909" stroke-linecap="round" stroke-linejoin="round" fill="none" stroke="#7f7fff" d="M-1.10585 1.47446C-1.01369 .92154 0 .09215 .27646 0 0-.09215-1.01369-.92154-1.10585-1.47446"/>
<path transform="matrix(1,0,0,-1,231.33155,256.90824)" stroke-width=".63017" stroke-linecap="butt" stroke-miterlimit="10" stroke-linejoin="miter" fill="none" stroke="#7f7fff" d="M-14.73-21.56487-11.05208-28.92055"/>
<path transform="matrix(.4472,.89438,.89438,-.4472,220.27945,285.82875)" stroke-width=".50414" stroke-linecap="round" stroke-linejoin="round" fill="none" stroke="#7f7fff" d="M-1.40402 1.87202C-1.287 1.17001 0 .11699 .351 0 0-.11699-1.287-1.17001-1.40402-1.87202"/>
<path transform="matrix(1,0,0,-1,231.33155,256.90824)" d="M-20.81606-34.01651C-20.81606-31.42279-22.91864-29.3202-25.51237-29.3202-28.10611-29.3202-30.2087-31.42279-30.2087-34.01651-30.2087-36.61024-28.10611-38.71283-25.51237-38.71283-22.91864-38.71283-20.81606-36.61024-20.81606-34.01651ZM-25.51237-34.01651" fill="#ffffff"/>
<path transform="matrix(1,0,0,-1,231.33155,256.90824)" stroke-width=".79701" stroke-linecap="butt" stroke-miterlimit="10" stroke-linejoin="miter" fill="none" stroke="#000000" d="M-20.81606-34.01651C-20.81606-31.42279-22.91864-29.3202-25.51237-29.3202-28.10611-29.3202-30.2087-31.42279-30.2087-34.01651-30.2087-36.61024-28.10611-38.71283-25.51237-38.71283-22.91864-38.71283-20.81606-36.61024-20.81606-34.01651ZM-25.51237-34.01651"/>
<path transform="matrix(1,0,0,-1,231.33155,256.90824)" stroke-width=".8248" stroke-linecap="butt" stroke-miterlimit="10" stroke-linejoin="miter" fill="none" stroke="#7f7fff" d="M-4.23895-19.8342-20.67044-30.7886"/>
<path transform="matrix(-.83202,.55467,.55467,.83202,210.66114,287.69685)" stroke-width=".65984" stroke-linecap="round" stroke-linejoin="round" fill="none" stroke="#7f7fff" d="M-1.5792 2.10559C-1.44759 1.31598 0 .13158 .39479 0 0-.13158-1.44759-1.31598-1.5792-2.10559"/>
<path transform="matrix(1,0,0,-1,231.33155,256.90824)" stroke-width=".3065" stroke-linecap="butt" stroke-miterlimit="10" stroke-linejoin="miter" fill="none" stroke="#7f7fff" d="M-19.28651-21.56487-23.05489-29.10146"/>
<path transform="matrix(-.4472,.89438,.89438,.4472,208.27664,286.00975)" stroke-width=".2452" stroke-linecap="round" stroke-linejoin="round" fill="none" stroke="#7f7fff" d="M-1.11269 1.48358C-1.01996 .92723 0 .09271 .27815 0 0-.09271-1.01996-.92723-1.11269-1.48358"/>
<path transform="matrix(1,0,0,-1,231.33155,256.90824)" d="M13.20044-51.02478C13.20044-48.43105 11.09785-46.32846 8.50412-46.32846 5.91039-46.32846 3.8078-48.43105 3.8078-51.02478 3.8078-53.61852 5.91039-55.7211 8.50412-55.7211 11.09785-55.7211 13.20044-53.61852 13.20044-51.02478ZM8.50412-51.02478" fill="#ffffff"/>
<path transform="matrix(1,0,0,-1,231.33155,256.90824)" stroke-width=".79701" stroke-linecap="butt" stroke-miterlimit="10" stroke-linejoin="miter" fill="none" stroke="#000000" d="M13.20044-51.02478C13.20044-48.43105 11.09785-46.32846 8.50412-46.32846 5.91039-46.32846 3.8078-48.43105 3.8078-51.02478 3.8078-53.61852 5.91039-55.7211 8.50412-55.7211 11.09785-55.7211 13.20044-53.61852 13.20044-51.02478ZM8.50412-51.02478"/>
<path transform="matrix(1,0,0,-1,231.33155,256.90824)" stroke-width=".63397" stroke-linecap="butt" stroke-miterlimit="10" stroke-linejoin="miter" fill="none" stroke="#7f7fff" d="M8.50412-39.11134V-45.3245"/>
<path transform="matrix(0,1,1,0,239.83563,302.23274)" stroke-width=".50717" stroke-linecap="round" stroke-linejoin="round" fill="none" stroke="#7f7fff" d="M-1.40744 1.87659C-1.29015 1.17285 0 .11728 .35184 0 0-.11728-1.29015-1.17285-1.40744-1.87659"/>
<path transform="matrix(1,0,0,-1,231.33155,256.90824)" stroke-width=".40483" stroke-linecap="butt" stroke-miterlimit="10" stroke-linejoin="miter" fill="none" stroke="#7f7fff" d="M-4.90154-37.6191 4.57468-47.09534"/>
<path transform="matrix(.7071,.7071,.7071,-.7071,235.90625,304.00355)" stroke-width=".32385" stroke-linecap="round" stroke-linejoin="round" fill="none" stroke="#7f7fff" d="M-1.2012 1.60161C-1.1011 1.00099 0 .10008 .3003 0 0-.10008-1.1011-1.00099-1.2012-1.60161"/>
<path transform="matrix(1,0,0,-1,231.33155,256.90824)" stroke-width=".48811" stroke-linecap="butt" stroke-miterlimit="10" stroke-linejoin="miter" fill="none" stroke="#7f7fff" d="M-20.95576-36.29477 3.48746-48.51637"/>
<path transform="matrix(.89436,.44717,.44717,-.89436,234.81906,305.42463)" stroke-width=".39049" stroke-linecap="round" stroke-linejoin="round" fill="none" stroke="#7f7fff" d="M-1.27614 1.70152C-1.16978 1.06345 0 .10632 .31902 0 0-.10632-1.16978-1.06345-1.27614-1.70152"/>
<path transform="matrix(1,0,0,-1,231.33155,256.90824)" d="M-3.8078-51.02478C-3.8078-48.43105-5.91039-46.32846-8.50412-46.32846-11.09785-46.32846-13.20044-48.43105-13.20044-51.02478-13.20044-53.61852-11.09785-55.7211-8.50412-55.7211-5.91039-55.7211-3.8078-53.61852-3.8078-51.02478ZM-8.50412-51.02478" fill="#ffffff"/>
<path transform="matrix(1,0,0,-1,231.33155,256.90824)" stroke-width=".79701" stroke-linecap="butt" stroke-miterlimit="10" stroke-linejoin="miter" fill="none" stroke="#000000" d="M-3.8078-51.02478C-3.8078-48.43105-5.91039-46.32846-8.50412-46.32846-11.09785-46.32846-13.20044-48.43105-13.20044-51.02478-13.20044-53.61852-11.09785-55.7211-8.50412-55.7211-5.91039-55.7211-3.8078-53.61852-3.8078-51.02478ZM-8.50412-51.02478"/>
<path transform="matrix(1,0,0,-1,231.33155,256.90824)" stroke-width=".34062" stroke-linecap="butt" stroke-miterlimit="10" stroke-linejoin="miter" fill="none" stroke="#7f7fff" d="M4.90154-37.6191-4.60306-47.12372"/>
<path transform="matrix(-.7071,.7071,.7071,.7071,226.72846,304.03193)" stroke-width=".27249" stroke-linecap="round" stroke-linejoin="round" fill="none" stroke="#7f7fff" d="M-1.14342 1.52457C-1.04814 .95285 0 .09528 .28584 0 0-.09528-1.04814-.95285-1.14342-1.52457"/>
<path transform="matrix(1,0,0,-1,231.33155,256.90824)" stroke-width=".79291" stroke-linecap="butt" stroke-miterlimit="10" stroke-linejoin="miter" fill="none" stroke="#7f7fff" d="M-8.50412-39.11134V-45.22516"/>
<path transform="matrix(0,1,1,0,222.82746,302.13343)" stroke-width=".63432" stroke-linecap="round" stroke-linejoin="round" fill="none" stroke="#7f7fff" d="M-1.55046 2.06728C-1.42123 1.29204 0 .1292 .3876 0 0-.1292-1.42123-1.29204-1.55046-2.06728"/>
<path transform="matrix(1,0,0,-1,231.33155,256.90824)" stroke-width=".40704" stroke-linecap="butt" stroke-miterlimit="10" stroke-linejoin="miter" fill="none" stroke="#7f7fff" d="M-21.9098-37.6191-12.43452-47.09438"/>
<path transform="matrix(.7071,.7071,.7071,-.7071,218.89704,304.00263)" stroke-width=".32562" stroke-linecap="round" stroke-linejoin="round" fill="none" stroke="#7f7fff" d="M-1.20317 1.60423C-1.10289 1.00264 0 .10025 .30078 0 0-.10025-1.10289-1.00264-1.20317-1.60423"/>
<path transform="matrix(1,0,0,-1,231.33155,256.90824)" d="M-20.81606-51.02478C-20.81606-48.43105-22.91864-46.32846-25.51237-46.32846-28.10611-46.32846-30.2087-48.43105-30.2087-51.02478-30.2087-53.61852-28.10611-55.7211-25.51237-55.7211-22.91864-55.7211-20.81606-53.61852-20.81606-51.02478ZM-25.51237-51.02478" fill="#ffffff"/>
<path transform="matrix(1,0,0,-1,231.33155,256.90824)" stroke-width=".79701" stroke-linecap="butt" stroke-miterlimit="10" stroke-linejoin="miter" fill="none" stroke="#000000" d="M-20.81606-51.02478C-20.81606-48.43105-22.91864-46.32846-25.51237-46.32846-28.10611-46.32846-30.2087-48.43105-30.2087-51.02478-30.2087-53.61852-28.10611-55.7211-25.51237-55.7211-22.91864-55.7211-20.81606-53.61852-20.81606-51.02478ZM-25.51237-51.02478"/>
<path transform="matrix(1,0,0,-1,231.33155,256.90824)" stroke-width=".74754" stroke-linecap="butt" stroke-miterlimit="10" stroke-linejoin="miter" fill="none" stroke="#7f7fff" d="M3.94751-36.29477-20.35071-48.44388"/>
<path transform="matrix(-.89436,.44717,.44717,.89436,210.98084,305.35215)" stroke-width=".59804" stroke-linecap="round" stroke-linejoin="round" fill="none" stroke="#7f7fff" d="M-1.50964 2.01286C-1.38383 1.25803 0 .1258 .3774 0 0-.1258-1.38383-1.25803-1.50964-2.01286"/>
<path transform="matrix(1,0,0,-1,231.33155,256.90824)" stroke-width=".89124" stroke-linecap="butt" stroke-miterlimit="10" stroke-linejoin="miter" fill="none" stroke="#7f7fff" d="M-12.10669-37.6191-21.36798-46.88039"/>
<path transform="matrix(-.7071,.7071,.7071,.7071,209.96353,303.78865)" stroke-width=".71298" stroke-linecap="round" stroke-linejoin="round" fill="none" stroke="#7f7fff" d="M-1.63898 2.1853C-1.5024 1.36581 0 .13657 .40973 0 0-.13657-1.5024-1.36581-1.63898-2.1853"/>
<path transform="matrix(1,0,0,-1,231.33155,256.90824)" stroke-width=".85892" stroke-linecap="butt" stroke-miterlimit="10" stroke-linejoin="miter" fill="none" stroke="#7f7fff" d="M-25.51237-39.11134V-45.1839"/>
<path transform="matrix(0,1,1,0,205.81916,302.09214)" stroke-width=".68712" stroke-linecap="round" stroke-linejoin="round" fill="none" stroke="#7f7fff" d="M-1.60988 2.14651C-1.47572 1.34157 0 .13416 .40247 0 0-.13416-1.47572-1.34157-1.60988-2.14651"/>
<path transform="matrix(1,0,0,-1,231.33155,256.90824)" d="M4.6963-68.03304C4.6963-65.43932 2.59372-63.33673 0-63.33673-2.59372-63.33673-4.6963-65.43932-4.6963-68.03304-4.6963-70.62677-2.59372-72.72935 0-72.72935 2.59372-72.72935 4.6963-70.62677 4.6963-68.03304ZM0-68.03304" fill="#ffffff"/>
<path transform="matrix(1,0,0,-1,231.33155,256.90824)" stroke-width=".79701" stroke-linecap="butt" stroke-miterlimit="10" stroke-linejoin="miter" fill="none" stroke="#000000" d="M4.6963-68.03304C4.6963-65.43932 2.59372-63.33673 0-63.33673-2.59372-63.33673-4.6963-65.43932-4.6963-68.03304-4.6963-70.62677-2.59372-72.72935 0-72.72935 2.59372-72.72935 4.6963-70.62677 4.6963-68.03304ZM0-68.03304"/>
<path transform="matrix(1,0,0,-1,231.33155,256.90824)" stroke-width=".46544" stroke-linecap="butt" stroke-miterlimit="10" stroke-linejoin="miter" fill="none" stroke="#7f7fff" d="M6.22586-55.58139 2.5019-63.02914"/>
<path transform="matrix(-.4472,.89438,.89438,.4472,233.83344,319.93733)" stroke-width=".37233" stroke-linecap="round" stroke-linejoin="round" fill="none" stroke="#7f7fff" d="M-1.25575 1.67433C-1.15111 1.04645 0 .10463 .31393 0 0-.10463-1.15111-1.04645-1.25575-1.67433"/>
<path transform="matrix(1,0,0,-1,231.33155,256.90824)" stroke-width=".71504" stroke-linecap="butt" stroke-miterlimit="10" stroke-linejoin="miter" fill="none" stroke="#7f7fff" d="M-6.22586-55.58139-2.57167-62.8896"/>
<path transform="matrix(.4472,.89438,.89438,-.4472,228.75986,319.79783)" stroke-width=".57202" stroke-linecap="round" stroke-linejoin="round" fill="none" stroke="#7f7fff" d="M-1.48041 1.97388C-1.35703 1.23366 0 .12335 .37009 0 0-.12335-1.35703-1.23366-1.48041-1.97388"/>
<path transform="matrix(1,0,0,-1,231.33155,256.90824)" stroke-width=".47888" stroke-linecap="butt" stroke-miterlimit="10" stroke-linejoin="miter" fill="none" stroke="#7f7fff" d="M-21.2734-53.85072-4.66205-64.92505"/>
<path transform="matrix(.83202,.55467,.55467,-.83202,226.66944,321.83323)" stroke-width=".3831" stroke-linecap="round" stroke-linejoin="round" fill="none" stroke="#7f7fff" d="M-1.26784 1.69044C-1.16219 1.05653 0 .10565 .31696 0 0-.10565-1.16219-1.05653-1.26784-1.69044"/>
<path transform="matrix(1,0,0,-1,231.33155,256.90824)" d="M-12.31194-68.03304C-12.31194-65.43932-14.41452-63.33673-17.00826-63.33673-19.60199-63.33673-21.70457-65.43932-21.70457-68.03304-21.70457-70.62677-19.60199-72.72935-17.00826-72.72935-14.41452-72.72935-12.31194-70.62677-12.31194-68.03304ZM-17.00826-68.03304" fill="#ffffff"/>
<path transform="matrix(1,0,0,-1,231.33155,256.90824)" stroke-width=".79701" stroke-linecap="butt" stroke-miterlimit="10" stroke-linejoin="miter" fill="none" stroke="#000000" d="M-12.31194-68.03304C-12.31194-65.43932-14.41452-63.33673-17.00826-63.33673-19.60199-63.33673-21.70457-65.43932-21.70457-68.03304-21.70457-70.62677-19.60199-72.72935-17.00826-72.72935-14.41452-72.72935-12.31194-70.62677-12.31194-68.03304ZM-17.00826-68.03304"/>
<path transform="matrix(1,0,0,-1,231.33155,256.90824)" stroke-width=".50157" stroke-linecap="butt" stroke-miterlimit="10" stroke-linejoin="miter" fill="none" stroke="#7f7fff" d="M4.26515-53.85072-12.3344-64.91719"/>
<path transform="matrix(-.83202,.55467,.55467,.83202,218.99713,321.82545)" stroke-width=".40125" stroke-linecap="round" stroke-linejoin="round" fill="none" stroke="#7f7fff" d="M-1.28827 1.7177C-1.18091 1.07356 0 .10735 .32207 0 0-.10735-1.18091-1.07356-1.28827-1.7177"/>
<path transform="matrix(1,0,0,-1,231.33155,256.90824)" stroke-width=".29887" stroke-linecap="butt" stroke-miterlimit="10" stroke-linejoin="miter" fill="none" stroke="#7f7fff" d="M-10.78238-55.58139-14.55289-63.12224"/>
<path transform="matrix(-.4472,.89438,.89438,.4472,216.77866,320.03044)" stroke-width=".23909" stroke-linecap="round" stroke-linejoin="round" fill="none" stroke="#7f7fff" d="M-1.10585 1.47446C-1.01369 .92154 0 .09215 .27646 0 0-.09215-1.01369-.92154-1.10585-1.47446"/>
<path transform="matrix(1,0,0,-1,231.33155,256.90824)" stroke-width=".63017" stroke-linecap="butt" stroke-miterlimit="10" stroke-linejoin="miter" fill="none" stroke="#7f7fff" d="M-23.23412-55.58139-19.55621-62.93706"/>
<path transform="matrix(.4472,.89438,.89438,-.4472,211.77536,319.8452)" stroke-width=".50414" stroke-linecap="round" stroke-linejoin="round" fill="none" stroke="#7f7fff" d="M-1.40402 1.87202C-1.287 1.17001 0 .11699 .351 0 0-.11699-1.287-1.17001-1.40402-1.87202"/>
<text xml:space="preserve" transform="matrix(1 0 -0 1 -99.14646 656.4462)" font-size="9.9626" font-family="NimbusRomNo9L" font-style="italic"><tspan y="-359.163" x="365.346 370.88523 375.30863 380.28993 384.16539 389.14668">Learn:</tspan></text>
<text xml:space="preserve" transform="matrix(1 0 -0 1 -99.14646 656.4462)" font-size="9.9626" font-family="CMR10"><tspan y="-359.163" x="397.213 402.1943 406.09669 412.87126 421.18305 423.95066">argmin</tspan></text>
<text fill="#7f7fff" xml:space="preserve" transform="matrix(1 0 -0 1 -99.14646 656.4462)" font-size="9.9626" font-family="CMBX10" font-weight="bold"><tspan y="-348.73" x="405.508">W</tspan></text>
<text fill="#7f7fff" xml:space="preserve" transform="matrix(1 0 -0 1 -99.14646 656.4462)" font-size="6.9738" font-family="CMMI7" font-style="italic"><tspan y="-347.236" x="417.352">`</tspan></text>
<text xml:space="preserve" transform="matrix(1 0 -0 1 -99.14646 656.4462)" font-size="9.9626" font-family="CMSY10" font-style="italic"><tspan y="-359.163" x="431.141">F</tspan></text>
<text xml:space="preserve" transform="matrix(1 0 -0 1 -99.14646 656.4462)" font-size="9.9626" font-family="NimbusRomNo9L"><tspan y="-354.029" x="464.332 467.64955 472.63084">(3)</tspan></text>
<text xml:space="preserve" transform="matrix(1.0099504 0 -0 .99014768 -99.14646 656.4462)" font-size="10.061731" font-family="NimbusRomNo9L"><tspan y="-315.11869" x="113.78677 119.934497 124.96536 131.98845 134.78562 139.81649 143.16704 147.63443 150.98499 155.4524 160.48328 164.95067 171.9637 176.99457 182.02545 187.05632 191.52373 199.35175 202.14891 206.61632 213.08602 217.55342 220.90398 227.92707 232.95792 237.42533 242.45618 246.92359 250.27414 254.74156 257.5387 260.33586 267.91236 273.50669 276.85728 280.77128 286.1241 289.4747 294.50556 302.08207 304.8792 312.46577 316.9332 321.96406 326.60255 331.48249 335.9499 339.1294 344.16029 348.6277 353.65858 358.126 365.13905 370.16993 375.20079 377.99794 380.79508">Theinferencedynamicsaregenerally&#xfb01;rstruntoconvergenceuntil</tspan></text>
<text xml:space="preserve" transform="matrix(1 0 -0 1 -99.14646 656.4462)" font-size="9.9626" font-family="CMR10"><tspan y="-312.014" x="389.989">&#x2206;</tspan></text>
<text xml:space="preserve" transform="matrix(1 0 -0 1 -99.14646 656.4462)" font-size="9.9626" font-family="CMBX10" font-weight="bold"><tspan y="-312.014" x="398.292">z</tspan></text>
<text xml:space="preserve" transform="matrix(1 0 -0 1 -99.14646 656.4462)" font-size="6.9738" font-family="CMMI7" font-style="italic"><tspan y="-310.519" x="403.384">`</tspan></text>
<text xml:space="preserve" transform="matrix(1 0 -0 1 -99.14646 656.4462)" font-size="9.9626" font-family="CMSY10" font-style="italic"><tspan y="-312.014" x="410.145">&#x21e1;</tspan></text>
<text xml:space="preserve" transform="matrix(1 0 -0 1 -99.14646 656.4462)" font-size="9.9626" font-family="CMR10"><tspan y="-312.014" x="420.822">0</tspan></text>
<text xml:space="preserve" transform="matrix(1.0099504 0 -0 .99014768 -99.14646 656.4462)" font-size="10.061731" font-family="NimbusRomNo9L"><tspan y="-315.11869" x="421.60786 427.44367 433.5914 438.62226 443.0897 448.12055 453.20176 457.66917 463.022 465.81916 470.85">.Then,atthe</tspan></text>
<text xml:space="preserve" transform="matrix(1.0099504 0 -0 .99014768 -99.14646 656.4462)" font-size="10.061731" font-family="NimbusRomNo9L"><tspan y="-304.10115" x="114.09273 117.44328 121.9107 126.37811 130.84552 135.87638 140.34378 147.93032 152.39772 157.42859 162.45946 165.25662 168.05379 170.85095 175.8818 179.23236 182.02953 187.0604 197.4441 202.47498 208.38123 211.17839 216.20926 223.23235 227.69976 232.16716 234.96433 237.50995 242.54082 245.33798 248.13515 250.93231 255.39972 259.31376 264.405 267.20216 272.233 279.2561 286.5207 290.9881 293.78526 298.81614 303.847 306.64414 313.11387 317.58128 320.93186 327.95497 332.98585 338.0167 343.04759 347.51499 350.31214 354.77958 362.36613 367.397 370.19416 377.21726 381.68467 386.71556 394.54356 402.37159 407.40248 414.989 420.0199 424.4873 429.5182 432.86875 437.33619 442.689 447.71989 452.1873 454.98445 462.1484 467.17927 470.52986">reachedequilibriumoftheactivities,theweightsareupdatedviacommonneuralnetwork</tspan></text>
<text xml:space="preserve" transform="matrix(.98994949 0 -0 1.0101526 -99.14646 656.4462)" font-size="9.862471" font-family="NimbusRomNo9L"><tspan y="-287.2794" x="116.39786 121.329097 126.26033 129.0021 131.74387 139.41687 142.15865 145.99515 150.37409 153.65828 159.90123 163.73773 168.66898 173.04792 180.39543 184.77439 191.01734 194.85384 197.59561 202.52684 206.90578 211.837 216.21595 220.05245 222.79422 225.536 232.33124 239.45194 248.9791 253.91033 259.6108 266.7315 271.66276 276.0417 286.12117 289.40538 295.4313 300.36256">optimiserssuchasstochasticGDorAdam(Eq.</tspan></text>
<text fill="#ff0000" xml:space="preserve" transform="matrix(.98994949 0 -0 1.0101526 -99.14646 656.4462)" font-size="9.862471" font-family="NimbusRomNo9L"><tspan y="-287.2794" x="305.91514">3</tspan></text>
<text xml:space="preserve" transform="matrix(.98994949 0 -0 1.0101526 -99.14646 656.4462)" font-size="9.862471" font-family="NimbusRomNo9L"><tspan y="-287.2794" x="310.84638 314.13059 319.67329 325.69926 330.6305 333.37226 339.62507 344.5563 347.84049 352.77174 357.1507 361.52964 365.36613 371.60908 374.35084 380.60368 383.88786 388.26679 393.19804 397.57698 401.95594 404.6977 409.07664 416.4143 419.69853 424.62977 430.33027 434.4528 439.23609 443.61503 446.89924 454.23695 456.9787 460.26289 464.6418 467.38359 472.31483 475.05659 479.98783">).Thisprocessisrepeatedforeverytraining</tspan></text>
<text xml:space="preserve" transform="matrix(.9909591 0 -0 1.0091233 -99.14646 656.4462)" font-size="9.872529" font-family="NimbusRomNo9L"><tspan y="-276.76203" x="116.279277 120.11969 122.86425 127.24766 132.18392 137.17942 139.92398 144.86025 149.79651 152.54108 156.92449 161.30789 164.05246 166.79705 174.2508 177.53835 182.47461 188.28952 195.19043 200.1267 202.62445 207.40274 211.78615 219.24977 224.18604 228.56945 231.31401 238.21492 243.15119 247.53459 250.27916 254.66259 259.59886 265.20649 268.49403 273.4303 276.71788 281.10127 284.38883 288.77226 293.7085 298.09193 305.0027 307.74726 314.10517 316.84974 321.78599 326.72227 329.46684 333.85026 338.23365 340.9782 343.72279 351.1864 356.12269 360.50608 363.79365 367.0812 372.0175 375.30506 382.98588 387.3693 394.82304 399.75929 407.2229 411.06333 413.8079 418.1913 423.12757 428.06385 432.44725 435.7348 443.18855 450.31654 459.9719 464.90815 472.36189 475.10646 480.04273">step,typicallyforagivendatabatch.InferenceistypicallyperformedbystandardGDonthe</tspan></text>
<text xml:space="preserve" transform="matrix(.99649396 0 -0 1.0035185 -99.14646 656.4462)" font-size="9.92767" font-family="NimbusRomNo9L"><tspan y="-267.43605" x="115.63341 120.0413 125.005138 129.41301 132.54024 137.50406 141.81267 146.78644 153.95423 158.91806 161.67795 166.08582 173.5415 177.94937 182.35726 189.81293 194.77677 201.67649 205.53835 209.94623 214.35411 221.79987 226.20775 232.56147 235.32135 240.28517 247.1849 253.2507 258.21455 260.97444 265.3823 271.18006 276.14393 278.9038 282.76567 287.17356 290.47947 294.88734 297.64723 300.4071 304.26899 308.67686 311.43675 314.19664 319.1605 326.60624 331.57008 337.3678 340.12773 345.09156 351.99128 356.95515 360.26106 364.6689 369.63276 372.39265 376.80055 381.76438 387.0161 390.878 395.84184 399.7037 402.4636 406.87147">energy,whichcanbeseenastheEulerdiscretisationofthegradientsystem</tspan></text>
<text xml:space="preserve" transform="matrix(1 0 -0 1 -99.14646 656.4462)" font-size="9.9626" font-family="CMR10"><tspan y="-268.516" x="418.698">&#x02d9;</tspan></text>
<text xml:space="preserve" transform="matrix(1 0 -0 1 -99.14646 656.4462)" font-size="9.9626" font-family="CMBX10" font-weight="bold"><tspan y="-268.377" x="415.619">z</tspan></text>
<text xml:space="preserve" transform="matrix(1 0 -0 1 -99.14646 656.4462)" font-size="6.9738" font-family="CMMI7" font-style="italic"><tspan y="-266.883" x="420.711">`</tspan></text>
<text xml:space="preserve" transform="matrix(1 0 -0 1 -99.14646 656.4462)" font-size="9.9626" font-family="CMR10"><tspan y="-268.377" x="427.311">=</tspan></text>
<text xml:space="preserve" transform="matrix(1 0 -0 1 -99.14646 656.4462)" font-size="9.9626" font-family="CMSY10" font-style="italic"><tspan y="-268.377" x="437.827">&#x2212;</tspan></text>
<text xml:space="preserve" transform="matrix(1 0 -0 1 -99.14646 656.4462)" font-size="9.9626" font-family="CMMI10" font-style="italic"><tspan y="-268.377" x="445.576">@</tspan></text>
<text xml:space="preserve" transform="matrix(1 0 -0 1 -99.14646 656.4462)" font-size="9.9626" font-family="CMSY10" font-style="italic"><tspan y="-268.377" x="451.419">F</tspan></text>
<text xml:space="preserve" transform="matrix(1 0 -0 1 -99.14646 656.4462)" font-size="9.9626" font-family="CMMI10" font-style="italic"><tspan y="-268.377" x="459.569">/</tspan></text>
<text xml:space="preserve" transform="matrix(1 0 -0 1 -99.14646 656.4462)" font-size="9.9626" font-family="CMMI10" font-style="italic"><tspan y="-268.377" x="464.5503">@</tspan></text>
<text xml:space="preserve" transform="matrix(1 0 -0 1 -99.14646 656.4462)" font-size="9.9626" font-family="CMBX10" font-weight="bold"><tspan y="-268.377" x="470.393">z</tspan></text>
<text xml:space="preserve" transform="matrix(1 0 -0 1 -99.14646 656.4462)" font-size="6.9738" font-family="CMMI7" font-style="italic"><tspan y="-266.883" x="475.485">`</tspan></text>
<text xml:space="preserve" transform="matrix(.99649396 0 -0 1.0035185 -99.14646 656.4462)" font-size="9.92767" font-family="NimbusRomNo9L"><tspan y="-267.43605" x="481.0044">.</tspan></text>
<text xml:space="preserve" transform="matrix(1 0 -0 1 -99.14646 656.4462)" font-size="9.9626" font-family="NimbusRomNo9L"><tspan y="-257.468" x="115.258 119.631587 125.66892 135.0537 138.92916 141.69876 149.44966 154.43096 157.20056 164.6725 167.44211 171.61644 176.44829 180.87169 184.18924 188.61264 193.59394 198.01734 204.38344 211.57643 215.99983 218.76944 221.53905 224.8566 227.6262 232.0496 235.92507 238.69467 243.11808 250.59001 257.78303 264.976 273.55384 277.4293 282.41059 285.18019 290.01203 294.43544 297.75297 304.11909 306.88868 314.36064 317.13023 322.1115 324.8811 329.15507 334.13636 337.4539 341.8773 344.64689 351.56095 354.33055 359.31184 362.08143 368.44755 373.42884 376.74638 381.16978 386.15107 388.92066 393.34407 398.32536 403.5856 409.12483 413.85707 420.40248">JPCsimplyleverageswell-testedODEsolverstointegratethisgradient&#xfb02;ow.</tspan></text>
<text xml:space="preserve" transform="matrix(1 0 -0 1 -99.14646 656.4462)" font-size="11.9552" font-family="NimbusRomNo9L" font-weight="bold"><tspan y="-217.562" x="99.638 117.5708 126.20245 132.84955 139.49665 143.47772 146.80127 156.75995 165.05686 170.36496 174.34604 180.99314 186.30124 189.62479 194.93289 201.57999 206.88809">3Runtimeef&#xfb01;ciency</tspan></text>
<text xml:space="preserve" transform="matrix(.98994949 0 -0 1.0101526 -99.14646 656.4462)" font-size="9.862471" font-family="NimbusRomNo9L"><tspan y="-190.88602" x="100.286937 109.67601 114.05495 118.98618 126.65919 131.59043 134.87462 139.25356 144.1848 148.56374 153.49497 157.33147 159.81682 164.60012 171.24742 176.17865 180.55759 185.48882 189.86777 194.799 202.472 206.85094 210.13513 215.06636 217.80814 222.73937 229.93897 234.8702 240.4129 245.09758 249.47652 252.76071 255.50249 260.43373 265.36497 271.46986 274.2116 279.14286 284.0741 288.45304 294.54804 299.47929 305.03187 310.5154 317.09367 326.48277 333.60346 336.3452 339.08699 346.2866 353.4073 362.7865 367.16545 373.2703 376.01206 380.9433 384.2275 388.60646 391.89067 396.2696 401.20085 405.57978 412.22709 417.15834 422.08958 424.83134 427.5731 435.2461 437.98786 441.82438 446.2033 451.7559 458.77796 463.1569 469.25193 472.5361 476.91505 481.29399 485.67295 490.6042 493.34596 496.0877">AcomprehensivebenchmarkingofvarioustypesofPCNwithGDasinferenceoptimiserwasrecently</tspan></text>
<text xml:space="preserve" transform="matrix(1.0049878 0 -0 .99503698 -99.14646 656.4462)" font-size="10.012291" font-family="NimbusRomNo9L"><tspan y="-182.82236" x="99.14349 104.149639 108.59509 111.929187 115.263278 120.269428 123.603519 131.39308 135.83855 143.32775 148.3339 155.83309">performedby[</tspan></text>
<text fill="#ff7f00" xml:space="preserve" transform="matrix(1 0 -0 1 -99.14646 656.4462)" font-size="9.9626" font-family="NimbusRomNo9L"><tspan y="-181.915" x="159.957 164.9383">10</tspan></text>
<text xml:space="preserve" transform="matrix(1.0049878 0 -0 .99503698 -99.14646 656.4462)" font-size="10.012291" font-family="NimbusRomNo9L"><tspan y="-182.82236" x="169.07668 172.41077 178.00765 183.42429 188.43044 194.25759 197.041 202.04715 204.83057 211.2084 214.5425 218.98796 223.43343 227.32822 232.33437 237.3405 242.33664 247.34279 251.78824 255.12235 262.0508 269.2797 276.2082 279.54228 284.5484 288.99388 294.00004 300.38789 305.394 312.8832 316.2173 321.22346 326.2296 329.01304 331.79646 339.58604 346.51454 350.95997 354.04374 359.61058 364.05604 366.83946 371.28489 376.29106 380.5863 384.95167 389.9478 394.39326 399.3994 407.189 412.19517 416.6406 419.97468 422.7581 427.76426 435.25346 439.14826 441.93168 446.3771 451.38328 456.38945 460.83488 464.16896 471.65815 477.77565 482.7818 485.56523 490.01069">].Forthisreason,herewefocusonruntimeef&#xfb01;ciency,comparingstandardEuler</tspan></text>
<text xml:space="preserve" transform="matrix(.9949875 0 -0 1.0050378 -99.14646 656.4462)" font-size="9.912662" font-family="NimbusRomNo9L"><tspan y="-170.14884" x="100.13995 102.895679 107.852008 110.60773 114.86025 119.81659 123.11751 127.51872 130.27445 133.03018 137.98651 145.45075 150.40708 156.206 158.96172 163.91805 170.82718 173.5829 178.53923 181.84017 186.2414 189.54232 193.94355 198.89987 203.3011 210.21022 215.16657 218.46749 222.86872 227.82505 230.58077 234.982 239.93833 245.20195 250.7134 255.4219 265.07685 270.03318 274.9895 279.94584 284.34706 292.0591 294.81486 299.21604 305.58 312.7369 315.49266 318.24839 325.71263 332.86955 337.27076 342.22709 347.1834 352.16947 359.07859 362.9346 367.33583 371.73704 376.69337 381.6497 386.60603 389.90693 394.86329 398.16419 403.1205 407.52174 413.33055 417.57316 422.52949 427.4858 430.24153 432.99726 437.39848 440.1542 445.41783 452.02958 456.9859 461.94224 466.89857 471.29978 476.2561 483.26435 488.2207 490.9764 493.73216">integrationoftheinferencegradient&#xfb02;owdynamicswithHeun,asecond-orderexplicitRunge&#x2013;Kutta</tspan></text>
<text xml:space="preserve" transform="matrix(1.0099504 0 -0 .99014768 -99.14646 656.4462)" font-size="10.061731" font-family="NimbusRomNo9L"><tspan y="-161.69004" x="98.656337 106.48436 110.951778 113.74894 118.7798 123.81067 128.84154 136.01557 143.28014 148.31099 151.10816 158.57396 161.37113 166.40198 170.85932 173.65648 179.31119 183.77858 190.691 198.15679 202.0708 206.53821 211.0056 216.03649 221.06735 226.09822 229.44879 234.47965 237.8302 242.86106 247.32846 253.67742 261.50544 265.97285 268.77 273.80088 278.83177 283.8626 289.50727 296.77183 301.23927 306.2701 314.29939 319.33027 323.79768 330.7101 338.1759 343.2068 346.00395 351.03483 356.06568 360.5331 366.88209 371.3495 376.38038 384.20838 389.23927 394.27015 397.0673 401.5347 404.33186 407.129 412.15989 417.19075 421.65818 427.4537 431.9211 436.952 440.86604 446.66157 449.4587 454.4896 458.957 466.98628 473.134 478.16487 480.962 485.42945 488.78">method.Notethat,asasecond-ordermethod,HeunhasahighercomputationalcostthanEuler;</tspan></text>
<text xml:space="preserve" transform="matrix(1 0 -0 1 -99.14646 656.4462)" font-size="9.9626" font-family="NimbusRomNo9L"><tspan y="-149.187" x="99.638 104.6193 109.35154 116.54454 120.71887 125.550739 129.97414 132.89319 137.87448 140.64409 145.90435 150.32775 155.30904 160.29033 163.05994 170.53188 174.40734 177.17694 179.94655 182.71616 187.97641 192.9577 199.87175 203.08968 207.51308 211.38854 214.15814 218.58155 224.38974 227.15935 232.96755 235.73715 240.9974 244.31496 248.73836 253.71965 258.70097 261.47056 264.7881 269.2115 275.5776 279.45307 282.22267 287.20396 292.18525 294.95484 300.49406 304.91746 309.34086 314.32215 317.09175 319.86134 327.33329 330.65083 334.82518 342.01817 346.44157 352.24977 356.1252 358.8948 363.3182 368.2995 374.66563 377.4352 384.90718 389.33058 394.31187 398.89466 403.7265 408.1499 411.28813 416.2694 420.6928">however,itcouldstillbefasterifitrequiressigni&#xfb01;cantlyfewerstepstoconverge.</tspan></text>
<text xml:space="preserve" transform="matrix(1.0099504 0 -0 .99014768 -99.14646 656.4462)" font-size="10.061731" font-family="NimbusRomNo9L"><tspan y="-134.12039" x="98.35038 104.4981 109.52896 116.90422 120.81823 125.84909 128.64626 133.53626 138.00366 141.35422 148.17606 155.44063 159.90804 163.25859 170.63382 175.10123 180.13208 187.96012 192.99098 197.45839 200.80895 205.27635 213.2251 218.25597 226.19469 229.54524 234.01264 238.48004 243.5109 246.86147 251.89232 255.24289 262.40684 266.87428 270.22483 278.17359 283.20448 287.67189 290.46903 297.633 302.66386 306.01445 311.0453 317.86717 320.6643 324.0149 328.4823 331.27946 336.31034 340.77775 348.7265 351.52366 359.46238 363.92979 366.72694 371.19438 375.10838 379.0224 381.81956 385.17015 393.10884 397.02287 399.82 404.2874 409.3183 414.34919 418.8166 422.16719 430.11595 432.9131 440.74113 445.20854 450.2394 457.61466 462.6455 467.11296 469.9101 474.3775 478.29154 482.75895 485.5561 489.47013">Thesolverswerecomparedonfeedforwardnetworkstrainedtoclassifystandardimagedatasets,</tspan></text>
<text xml:space="preserve" transform="matrix(1.0099504 0 -0 .99014768 -99.14646 656.4462)" font-size="10.061731" font-family="NimbusRomNo9L"><tspan y="-123.10285" x="98.300868 105.56544 108.3626 111.15977 120.03421 125.06508 127.86224 130.97133 134.31182 138.77922 142.12978 146.59719 151.62805 158.2688 163.29967 168.33054 176.15857 181.18944 185.65685 192.85097 197.88184 205.07596 210.10684 212.904 217.93486 222.96573 227.43314 236.30757 239.10474 243.57215 248.603 253.0704 256.42097">withdifferentnumberofhiddenlayers</tspan></text>
<text xml:space="preserve" transform="matrix(1 0 -0 1 -99.14646 656.4462)" font-size="9.9626" font-family="CMMI10" font-style="italic"><tspan y="-121.89" x="266.809">H</tspan></text>
<text xml:space="preserve" transform="matrix(1 0 -0 1 -99.14646 656.4462)" font-size="9.9626" font-family="CMSY10" font-style="italic"><tspan y="-121.89" x="281.244">2</tspan></text>
<text xml:space="preserve" transform="matrix(1 0 -0 1 -99.14646 656.4462)" font-size="9.9626" font-family="CMSY10" font-style="italic"><tspan y="-121.89" x="293.226">{</tspan></text>
<text xml:space="preserve" transform="matrix(1 0 -0 1 -99.14646 656.4462)" font-size="9.9626" font-family="CMR10"><tspan y="-121.89" x="298.212">3</tspan></text>
<text xml:space="preserve" transform="matrix(1 0 -0 1 -99.14646 656.4462)" font-size="9.9626" font-family="CMMI10" font-style="italic"><tspan y="-121.89" x="303.193">,</tspan></text>
<text xml:space="preserve" transform="matrix(1 0 -0 1 -99.14646 656.4462)" font-size="9.9626" font-family="CMR10"><tspan y="-121.89" x="307.621">5</tspan></text>
<text xml:space="preserve" transform="matrix(1 0 -0 1 -99.14646 656.4462)" font-size="9.9626" font-family="CMMI10" font-style="italic"><tspan y="-121.89" x="312.602">,</tspan></text>
<text xml:space="preserve" transform="matrix(1 0 -0 1 -99.14646 656.4462)" font-size="9.9626" font-family="CMR10"><tspan y="-121.89" x="317.03 322.0113">10</tspan></text>
<text xml:space="preserve" transform="matrix(1 0 -0 1 -99.14646 656.4462)" font-size="9.9626" font-family="CMSY10" font-style="italic"><tspan y="-121.89" x="326.993">}</tspan></text>
<text xml:space="preserve" transform="matrix(1.0099504 0 -0 .99014768 -99.14646 656.4462)" font-size="10.061731" font-family="NimbusRomNo9L"><tspan y="-123.10285" x="328.70329 338.41285 345.12403 349.59144 354.05888 358.52629 363.55717 367.47117 375.7822 380.81306 385.84394 393.0381 398.06898 403.09986 407.56727 414.208 421.37196 425.83937 433.597 436.39414 445.2686 449.18263 454.2135 458.6809 463.14836 465.9455 471.5398 476.00724 480.47465 483.2718 486.06895">.Becauseourgoalwastospeci&#xfb01;cally</tspan></text>
<text xml:space="preserve" transform="matrix(1 0 -0 1 -99.14646 656.4462)" font-size="9.9626" font-family="NimbusRomNo9L"><tspan y="-92.002" x="295.147">2</tspan></text>
</g>
</g>
</svg>
